<svg xmlns="http://www.w3.org/2000/svg" viewBox="0 0 760 380" role="img" aria-labelledby="title desc">
  <title>Walking Lunges weight and reps over time</title>
  <desc>Dot plot from Jun 19 to Aug 6. Vertical position is weight and dot size represents reps or time.</desc>
  <rect width="100%" height="100%" fill="#ffffff"/>
  <text x="82" y="24" font-family="Inter, Arial, sans-serif" font-size="18" font-weight="700" fill="#1f2328">Walking Lunges</text>
  <text x="82" y="44" font-family="Inter, Arial, sans-serif" font-size="12" fill="#59636e">Weight by date · dot size = reps/time</text>
  <line x1="82" y1="314" x2="732" y2="314" stroke="#d7dde4"/>
  <line x1="82" y1="58" x2="82" y2="314" stroke="#d7dde4"/>
  <line x1="82" y1="186.0" x2="732" y2="186.0" stroke="#eef1f5"/>
  <text x="70" y="318.0" text-anchor="end">BW</text><text x="70" y="190.0" text-anchor="end">16.5</text><text x="70" y="62.0" text-anchor="end">33</text>
  <g fill="#0b57d0" fill-opacity="0.62" stroke="#0847a8" stroke-width="1"><circle cx="82.0" cy="81.3" r="4.5"><title>Jun 19 · Set 1: 30 weight, - reps/time</title></circle><circle cx="82.0" cy="81.3" r="4.5"><title>Jun 19 · Set 2: 30 weight, - reps/time</title></circle><circle cx="89.0" cy="81.3" r="4.5"><title>Jun 19 · Set 3: 30 weight, - reps/time</title></circle><circle cx="723.2" cy="314.0" r="11.8"><title>Apr 2 · Set 1: BW weight, 10.0 reps/time</title></circle><circle cx="730.2" cy="314.0" r="11.8"><title>Apr 2 · Set 2: BW weight, 10.0 reps/time</title></circle><circle cx="732.0" cy="314.0" r="11.8"><title>Apr 2 · Set 3: BW weight, 10.0 reps/time</title></circle><circle cx="723.3" cy="314.0" r="12.5"><title>Apr 9 · Set 1: BW weight, 12.0 reps/time</title></circle><circle cx="730.3" cy="236.4" r="11.8"><title>Apr 9 · Set 2: 10 weight, 10.0 reps/time</title></circle><circle cx="732.0" cy="236.4" r="11.8"><title>Apr 9 · Set 3: 10 weight, 10.0 reps/time</title></circle><circle cx="723.4" cy="217.0" r="11.8"><title>Apr 16 · Set 1: 12.5 weight, 10.0 reps/time</title></circle><circle cx="730.4" cy="217.0" r="11.8"><title>Apr 16 · Set 2: 12.5 weight, 10.0 reps/time</title></circle><circle cx="732.0" cy="217.0" r="11.8"><title>Apr 16 · Set 3: 12.5 weight, 10.0 reps/time</title></circle><circle cx="723.5" cy="197.6" r="11.8"><title>Apr 23 · Set 1: 15 weight, 10.0 reps/time</title></circle><circle cx="730.5" cy="197.6" r="11.8"><title>Apr 23 · Set 2: 15 weight, 10.0 reps/time</title></circle><circle cx="732.0" cy="197.6" r="11.8"><title>Apr 23 · Set 3: 15 weight, 10.0 reps/time</title></circle><circle cx="723.6" cy="178.2" r="11.8"><title>Apr 30 · Set 1: 17.5 weight, 10.0 reps/time</title></circle><circle cx="730.6" cy="178.2" r="11.8"><title>Apr 30 · Set 2: 17.5 weight, 10.0 reps/time</title></circle><circle cx="732.0" cy="178.2" r="11.8"><title>Apr 30 · Set 3: 17.5 weight, 10.0 reps/time</title></circle><circle cx="723.7" cy="158.8" r="11.8"><title>May 7 · Set 1: 20 weight, 10.0 reps/time</title></circle><circle cx="730.7" cy="158.8" r="11.8"><title>May 7 · Set 2: 20 weight, 10.0 reps/time</title></circle><circle cx="732.0" cy="158.8" r="11.8"><title>May 7 · Set 3: 20 weight, 10.0 reps/time</title></circle><circle cx="723.9" cy="158.8" r="11.8"><title>May 21 · Set 1: 20 weight, 10.0 reps/time</title></circle><circle cx="730.9" cy="158.8" r="11.8"><title>May 21 · Set 2: 20 weight, 10.0 reps/time</title></circle><circle cx="732.0" cy="158.8" r="11.8"><title>May 21 · Set 3: 20 weight, 10.0 reps/time</title></circle><circle cx="724.0" cy="143.3" r="11.8"><title>May 28 · Set 1: 22 weight, 10.0 reps/time</title></circle><circle cx="731.0" cy="143.3" r="11.8"><title>May 28 · Set 2: 22 weight, 10.0 reps/time</title></circle><circle cx="732.0" cy="143.3" r="11.8"><title>May 28 · Set 3: 22 weight, 10.0 reps/time</title></circle><circle cx="724.1" cy="120.1" r="11.8"><title>Jun 4 · Set 1: 25 weight, 10.0 reps/time</title></circle><circle cx="731.1" cy="120.1" r="11.8"><title>Jun 4 · Set 2: 25 weight, 10.0 reps/time</title></circle><circle cx="732.0" cy="120.1" r="11.8"><title>Jun 4 · Set 3: 25 weight, 10.0 reps/time</title></circle><circle cx="724.2" cy="100.7" r="11.8"><title>Jun 11 · Set 1: 27.5 weight, 10.0 reps/time</title></circle><circle cx="731.2" cy="100.7" r="11.8"><title>Jun 11 · Set 2: 27.5 weight, 10.0 reps/time</title></circle><circle cx="732.0" cy="100.7" r="4.5"><title>Jun 11 · Set 3: 27.5 weight, - reps/time</title></circle><circle cx="724.4" cy="100.7" r="11.0"><title>Jun 25 · Set 1: 27.5 weight, 8.0 reps/time</title></circle><circle cx="731.4" cy="100.7" r="11.8"><title>Jun 25 · Set 2: 27.5 weight, 10.0 reps/time</title></circle><circle cx="732.0" cy="100.7" r="11.8"><title>Jun 25 · Set 3: 27.5 weight, 10.0 reps/time</title></circle><circle cx="724.6" cy="100.7" r="11.8"><title>Jul 9 · Set 1: 27.5 weight, 10.0 reps/time</title></circle><circle cx="731.6" cy="100.7" r="11.8"><title>Jul 9 · Set 2: 27.5 weight, 10.0 reps/time</title></circle><circle cx="732.0" cy="100.7" r="11.8"><title>Jul 9 · Set 3: 27.5 weight, 10.0 reps/time</title></circle><circle cx="724.7" cy="81.3" r="10.2"><title>Jul 16 · Set 1: 30 weight, 6.0 reps/time</title></circle><circle cx="731.7" cy="81.3" r="10.2"><title>Jul 16 · Set 2: 30 weight, 6.0 reps/time</title></circle><circle cx="732.0" cy="81.3" r="10.2"><title>Jul 16 · Set 3: 30 weight, 6.0 reps/time</title></circle><circle cx="724.8" cy="81.3" r="10.6"><title>Jul 23 · Set 1: 30 weight, 7.0 reps/time</title></circle><circle cx="731.8" cy="81.3" r="10.6"><title>Jul 23 · Set 2: 30 weight, 7.0 reps/time</title></circle><circle cx="732.0" cy="81.3" r="10.6"><title>Jul 23 · Set 3: 30 weight, 7.0 reps/time</title></circle><circle cx="725.0" cy="120.1" r="11.8"><title>Aug 6 · Set 1: 25 weight, 10.0 reps/time</title></circle><circle cx="732.0" cy="120.1" r="11.8"><title>Aug 6 · Set 2: 25 weight, 10.0 reps/time</title></circle><circle cx="732.0" cy="120.1" r="4.5"><title>Aug 6 · Set 3: 25 weight, - reps/time</title></circle></g>
  <text x="30" y="186.0" font-family="Inter, Arial, sans-serif" font-size="12" fill="#59636e" text-anchor="middle" transform="rotate(-90 30 186.0)">Weight</text>
  <text x="82" y="350" font-family="Inter, Arial, sans-serif" font-size="12" fill="#59636e" text-anchor="start">Jun 19</text>
  <text x="732" y="350" font-family="Inter, Arial, sans-serif" font-size="12" fill="#59636e" text-anchor="end">Aug 6</text>
  <text x="407.0" y="370" font-family="Inter, Arial, sans-serif" font-size="12" fill="#59636e" text-anchor="middle">Time</text>
</svg>
