<svg xmlns="http://www.w3.org/2000/svg" viewBox="0 0 760 380" role="img" aria-labelledby="title desc">
  <title>Deadbug weight and reps over time</title>
  <desc>Dot plot from Mar 31 to Jun 2. Vertical position is weight and dot size represents reps or time.</desc>
  <rect width="100%" height="100%" fill="#ffffff"/>
  <text x="82" y="24" font-family="Inter, Arial, sans-serif" font-size="18" font-weight="700" fill="#1f2328">Deadbug</text>
  <text x="82" y="44" font-family="Inter, Arial, sans-serif" font-size="12" fill="#59636e">Weight by date · dot size = reps/time</text>
  <line x1="82" y1="314" x2="732" y2="314" stroke="#d7dde4"/>
  <line x1="82" y1="58" x2="82" y2="314" stroke="#d7dde4"/>
  <line x1="82" y1="186.0" x2="732" y2="186.0" stroke="#eef1f5"/>
  <text x="70" y="318.0" text-anchor="end">BW</text><text x="70" y="190.0" text-anchor="end">12.1</text><text x="70" y="62.0" text-anchor="end">24.2</text>
  <g fill="#0b57d0" fill-opacity="0.62" stroke="#0847a8" stroke-width="1"><circle cx="82.0" cy="314.0" r="9.6"><title>Mar 31 · Set 1: BW weight, 8.0 reps/time</title></circle><circle cx="82.0" cy="314.0" r="11.7"><title>Mar 31 · Set 2: BW weight, 16.0 reps/time</title></circle><circle cx="89.0" cy="314.0" r="11.7"><title>Mar 31 · Set 3: BW weight, 16.0 reps/time</title></circle><circle cx="147.2" cy="314.0" r="12.5"><title>Apr 7 · Set 1: BW weight, 20.0 reps/time</title></circle><circle cx="154.2" cy="314.0" r="12.5"><title>Apr 7 · Set 2: BW weight, 20.0 reps/time</title></circle><circle cx="161.2" cy="314.0" r="12.5"><title>Apr 7 · Set 3: BW weight, 20.0 reps/time</title></circle><circle cx="219.4" cy="314.0" r="11.7"><title>Apr 14 · Set 1: BW weight, 16.0 reps/time</title></circle><circle cx="226.4" cy="314.0" r="11.7"><title>Apr 14 · Set 2: BW weight, 16.0 reps/time</title></circle><circle cx="233.4" cy="314.0" r="11.7"><title>Apr 14 · Set 3: BW weight, 16.0 reps/time</title></circle><circle cx="291.7" cy="314.0" r="11.7"><title>Apr 21 · Set 1: BW weight, 16.0 reps/time</title></circle><circle cx="298.7" cy="314.0" r="11.7"><title>Apr 21 · Set 2: BW weight, 16.0 reps/time</title></circle><circle cx="305.7" cy="314.0" r="11.7"><title>Apr 21 · Set 3: BW weight, 16.0 reps/time</title></circle><circle cx="363.9" cy="314.0" r="12.5"><title>Apr 28 · Set 1: BW weight, 20.0 reps/time</title></circle><circle cx="370.9" cy="314.0" r="12.5"><title>Apr 28 · Set 2: BW weight, 20.0 reps/time</title></circle><circle cx="377.9" cy="314.0" r="12.5"><title>Apr 28 · Set 3: BW weight, 20.0 reps/time</title></circle><circle cx="436.1" cy="218.8" r="11.7"><title>May 5 · Set 1: 9 weight, 16.0 reps/time</title></circle><circle cx="443.1" cy="218.8" r="11.7"><title>May 5 · Set 2: 9 weight, 16.0 reps/time</title></circle><circle cx="450.1" cy="218.8" r="11.7"><title>May 5 · Set 3: 9 weight, 16.0 reps/time</title></circle><circle cx="508.3" cy="218.8" r="11.7"><title>May 12 · Set 1: 9 weight, 16.0 reps/time</title></circle><circle cx="515.3" cy="218.8" r="11.7"><title>May 12 · Set 2: 9 weight, 16.0 reps/time</title></circle><circle cx="522.3" cy="218.8" r="11.7"><title>May 12 · Set 3: 9 weight, 16.0 reps/time</title></circle><circle cx="580.6" cy="187.1" r="12.5"><title>May 19 · Set 1: 12 weight, 20.0 reps/time</title></circle><circle cx="587.6" cy="187.1" r="12.5"><title>May 19 · Set 2: 12 weight, 20.0 reps/time</title></circle><circle cx="594.6" cy="187.1" r="12.5"><title>May 19 · Set 3: 12 weight, 20.0 reps/time</title></circle><circle cx="652.8" cy="123.6" r="12.5"><title>May 26 · Set 1: 18 weight, 20.0 reps/time</title></circle><circle cx="659.8" cy="123.6" r="12.5"><title>May 26 · Set 2: 18 weight, 20.0 reps/time</title></circle><circle cx="666.8" cy="123.6" r="12.5"><title>May 26 · Set 3: 18 weight, 20.0 reps/time</title></circle><circle cx="725.0" cy="81.3" r="12.5"><title>Jun 2 · Set 1: 22 weight, 20.0 reps/time</title></circle><circle cx="732.0" cy="81.3" r="12.5"><title>Jun 2 · Set 2: 22 weight, 20.0 reps/time</title></circle><circle cx="732.0" cy="81.3" r="12.5"><title>Jun 2 · Set 3: 22 weight, 20.0 reps/time</title></circle></g>
  <text x="30" y="186.0" font-family="Inter, Arial, sans-serif" font-size="12" fill="#59636e" text-anchor="middle" transform="rotate(-90 30 186.0)">Weight</text>
  <text x="82" y="350" font-family="Inter, Arial, sans-serif" font-size="12" fill="#59636e" text-anchor="start">Mar 31</text>
  <text x="732" y="350" font-family="Inter, Arial, sans-serif" font-size="12" fill="#59636e" text-anchor="end">Jun 2</text>
  <text x="407.0" y="370" font-family="Inter, Arial, sans-serif" font-size="12" fill="#59636e" text-anchor="middle">Time</text>
</svg>
