<svg xmlns="http://www.w3.org/2000/svg" viewBox="0 0 760 380" role="img" aria-labelledby="title desc">
  <title>Hamstring Curl weight and reps over time</title>
  <desc>Dot plot from Mar 31 to Sep 15. Vertical position is weight and dot size represents reps or time.</desc>
  <rect width="100%" height="100%" fill="#ffffff"/>
  <text x="82" y="24" font-family="Inter, Arial, sans-serif" font-size="18" font-weight="700" fill="#1f2328">Hamstring Curl</text>
  <text x="82" y="44" font-family="Inter, Arial, sans-serif" font-size="12" fill="#59636e">Weight by date · dot size = reps/time</text>
  <line x1="82" y1="314" x2="732" y2="314" stroke="#d7dde4"/>
  <line x1="82" y1="58" x2="82" y2="314" stroke="#d7dde4"/>
  <line x1="82" y1="186.0" x2="732" y2="186.0" stroke="#eef1f5"/>
  <text x="70" y="318.0" text-anchor="end">8.4</text><text x="70" y="190.0" text-anchor="end">42.5</text><text x="70" y="62.0" text-anchor="end">76.6</text>
  <g fill="#0b57d0" fill-opacity="0.62" stroke="#0847a8" stroke-width="1"><circle cx="82.0" cy="270.5" r="8.9"><title>Mar 31 · Set 1: 20 weight, 6.0 reps/time</title></circle><circle cx="82.0" cy="289.2" r="8.9"><title>Mar 31 · Set 2: 15 weight, 6.0 reps/time</title></circle><circle cx="89.0" cy="289.2" r="8.9"><title>Mar 31 · Set 3: 15 weight, 6.0 reps/time</title></circle><circle cx="102.1" cy="289.2" r="11.4"><title>Apr 7 · Set 1: 15 weight, 15.0 reps/time</title></circle><circle cx="109.1" cy="270.5" r="12.5"><title>Apr 7 · Set 2: 20 weight, 20.0 reps/time</title></circle><circle cx="116.1" cy="232.9" r="11.4"><title>Apr 7 · Set 3: 30 weight, 15.0 reps/time</title></circle><circle cx="129.2" cy="214.2" r="11.4"><title>Apr 14 · Set 1: 35 weight, 15.0 reps/time</title></circle><circle cx="136.2" cy="214.2" r="11.4"><title>Apr 14 · Set 2: 35 weight, 15.0 reps/time</title></circle><circle cx="143.2" cy="214.2" r="11.4"><title>Apr 14 · Set 3: 35 weight, 15.0 reps/time</title></circle><circle cx="156.2" cy="195.4" r="11.4"><title>Apr 21 · Set 1: 40 weight, 15.0 reps/time</title></circle><circle cx="163.2" cy="195.4" r="11.4"><title>Apr 21 · Set 2: 40 weight, 15.0 reps/time</title></circle><circle cx="170.2" cy="195.4" r="11.4"><title>Apr 21 · Set 3: 40 weight, 15.0 reps/time</title></circle><circle cx="183.3" cy="176.6" r="11.4"><title>Apr 28 · Set 1: 45 weight, 15.0 reps/time</title></circle><circle cx="190.3" cy="176.6" r="10.4"><title>Apr 28 · Set 2: 45 weight, 11.0 reps/time</title></circle><circle cx="197.3" cy="176.6" r="10.2"><title>Apr 28 · Set 3: 45 weight, 10.0 reps/time</title></circle><circle cx="210.4" cy="157.8" r="10.7"><title>May 5 · Set 1: 50 weight, 12.0 reps/time</title></circle><circle cx="217.4" cy="157.8" r="9.9"><title>May 5 · Set 2: 50 weight, 9.0 reps/time</title></circle><circle cx="224.4" cy="157.8" r="10.2"><title>May 5 · Set 3: 50 weight, 10.0 reps/time</title></circle><circle cx="237.5" cy="157.8" r="11.4"><title>May 12 · Set 1: 50 weight, 15.0 reps/time</title></circle><circle cx="244.5" cy="157.8" r="11.2"><title>May 12 · Set 2: 50 weight, 14.0 reps/time</title></circle><circle cx="251.5" cy="157.8" r="10.9"><title>May 12 · Set 3: 50 weight, 13.0 reps/time</title></circle><circle cx="264.6" cy="139.1" r="11.4"><title>May 19 · Set 1: 55 weight, 15.0 reps/time</title></circle><circle cx="271.6" cy="139.1" r="11.4"><title>May 19 · Set 2: 55 weight, 15.0 reps/time</title></circle><circle cx="278.6" cy="139.1" r="10.2"><title>May 19 · Set 3: 55 weight, 10.0 reps/time</title></circle><circle cx="291.7" cy="120.3" r="11.4"><title>May 26 · Set 1: 60 weight, 15.0 reps/time</title></circle><circle cx="298.7" cy="120.3" r="10.9"><title>May 26 · Set 2: 60 weight, 13.0 reps/time</title></circle><circle cx="305.7" cy="120.3" r="10.9"><title>May 26 · Set 3: 60 weight, 13.0 reps/time</title></circle><circle cx="318.8" cy="101.5" r="10.7"><title>Jun 2 · Set 1: 65 weight, 12.0 reps/time</title></circle><circle cx="325.8" cy="101.5" r="9.6"><title>Jun 2 · Set 2: 65 weight, 8.0 reps/time</title></circle><circle cx="332.8" cy="101.5" r="9.9"><title>Jun 2 · Set 3: 65 weight, 9.0 reps/time</title></circle><circle cx="345.8" cy="101.5" r="10.9"><title>Jun 9 · Set 1: 65 weight, 13.0 reps/time</title></circle><circle cx="352.8" cy="101.5" r="10.4"><title>Jun 9 · Set 2: 65 weight, 11.0 reps/time</title></circle><circle cx="359.8" cy="101.5" r="9.6"><title>Jun 9 · Set 3: 65 weight, 8.0 reps/time</title></circle><circle cx="380.7" cy="101.5" r="9.6"><title>Jun 18 · Set 1: 65 weight, 8.0 reps/time</title></circle><circle cx="387.7" cy="101.5" r="10.2"><title>Jun 18 · Set 2: 65 weight, 10.0 reps/time</title></circle><circle cx="394.7" cy="101.5" r="9.2"><title>Jun 18 · Set 3: 65 weight, 7.0 reps/time</title></circle><circle cx="400.0" cy="101.5" r="11.4"><title>Jun 23 · Set 1: 65 weight, 15.0 reps/time</title></circle><circle cx="407.0" cy="101.5" r="10.4"><title>Jun 23 · Set 2: 65 weight, 11.0 reps/time</title></circle><circle cx="414.0" cy="101.5" r="10.4"><title>Jun 23 · Set 3: 65 weight, 11.0 reps/time</title></circle><circle cx="434.8" cy="82.8" r="10.2"><title>Jul 2 · Set 1: 70 weight, 10.0 reps/time</title></circle><circle cx="441.8" cy="82.8" r="9.6"><title>Jul 2 · Set 2: 70 weight, 8.0 reps/time</title></circle><circle cx="448.8" cy="82.8" r="9.2"><title>Jul 2 · Set 3: 70 weight, 7.0 reps/time</title></circle><circle cx="454.2" cy="82.8" r="10.4"><title>Jul 7 · Set 1: 70 weight, 11.0 reps/time</title></circle><circle cx="461.2" cy="82.8" r="9.9"><title>Jul 7 · Set 2: 70 weight, 9.0 reps/time</title></circle><circle cx="468.2" cy="82.8" r="9.6"><title>Jul 7 · Set 3: 70 weight, 8.0 reps/time</title></circle><circle cx="481.2" cy="82.8" r="10.4"><title>Jul 14 · Set 1: 70 weight, 11.0 reps/time</title></circle><circle cx="488.2" cy="82.8" r="9.9"><title>Jul 14 · Set 2: 70 weight, 9.0 reps/time</title></circle><circle cx="495.2" cy="82.8" r="9.2"><title>Jul 14 · Set 3: 70 weight, 7.0 reps/time</title></circle><circle cx="508.3" cy="82.8" r="10.7"><title>Jul 21 · Set 1: 70 weight, 12.0 reps/time</title></circle><circle cx="515.3" cy="82.8" r="9.6"><title>Jul 21 · Set 2: 70 weight, 8.0 reps/time</title></circle><circle cx="522.3" cy="82.8" r="8.5"><title>Jul 21 · Set 3: 70 weight, 5.0 reps/time</title></circle><circle cx="562.5" cy="82.8" r="10.7"><title>Aug 4 · Set 1: 70 weight, 12.0 reps/time</title></circle><circle cx="569.5" cy="82.8" r="10.2"><title>Aug 4 · Set 2: 70 weight, 10.0 reps/time</title></circle><circle cx="576.5" cy="82.8" r="9.9"><title>Aug 4 · Set 3: 70 weight, 9.0 reps/time</title></circle><circle cx="589.6" cy="82.8" r="10.2"><title>Aug 11 · Set 1: 70 weight, 10.0 reps/time</title></circle><circle cx="596.6" cy="82.8" r="10.2"><title>Aug 11 · Set 2: 70 weight, 10.0 reps/time</title></circle><circle cx="603.6" cy="82.8" r="9.2"><title>Aug 11 · Set 3: 70 weight, 7.0 reps/time</title></circle><circle cx="616.7" cy="82.8" r="10.2"><title>Aug 18 · Set 1: 70 weight, 10.0 reps/time</title></circle><circle cx="623.7" cy="82.8" r="10.4"><title>Aug 18 · Set 2: 70 weight, 11.0 reps/time</title></circle><circle cx="630.7" cy="82.8" r="10.2"><title>Aug 18 · Set 3: 70 weight, 10.0 reps/time</title></circle><circle cx="643.8" cy="82.8" r="10.7"><title>Aug 25 · Set 1: 70 weight, 12.0 reps/time</title></circle><circle cx="650.8" cy="82.8" r="9.6"><title>Aug 25 · Set 2: 70 weight, 8.0 reps/time</title></circle><circle cx="657.8" cy="82.8" r="10.2"><title>Aug 25 · Set 3: 70 weight, 10.0 reps/time</title></circle><circle cx="670.8" cy="82.8" r="10.7"><title>Sep 1 · Set 1: 70 weight, 12.0 reps/time</title></circle><circle cx="677.8" cy="82.8" r="10.2"><title>Sep 1 · Set 2: 70 weight, 10.0 reps/time</title></circle><circle cx="684.8" cy="82.8" r="9.6"><title>Sep 1 · Set 3: 70 weight, 8.0 reps/time</title></circle><circle cx="697.9" cy="82.8" r="10.2"><title>Sep 8 · Set 1: 70 weight, 10.0 reps/time</title></circle><circle cx="704.9" cy="82.8" r="9.9"><title>Sep 8 · Set 2: 70 weight, 9.0 reps/time</title></circle><circle cx="711.9" cy="82.8" r="9.6"><title>Sep 8 · Set 3: 70 weight, 8.0 reps/time</title></circle><circle cx="725.0" cy="82.8" r="4.5"><title>Sep 15 · Set 1: 70 weight, - reps/time</title></circle><circle cx="732.0" cy="82.8" r="4.5"><title>Sep 15 · Set 2: 70 weight, - reps/time</title></circle><circle cx="732.0" cy="82.8" r="4.5"><title>Sep 15 · Set 3: 70 weight, - reps/time</title></circle></g>
  <text x="30" y="186.0" font-family="Inter, Arial, sans-serif" font-size="12" fill="#59636e" text-anchor="middle" transform="rotate(-90 30 186.0)">Weight</text>
  <text x="82" y="350" font-family="Inter, Arial, sans-serif" font-size="12" fill="#59636e" text-anchor="start">Mar 31</text>
  <text x="732" y="350" font-family="Inter, Arial, sans-serif" font-size="12" fill="#59636e" text-anchor="end">Sep 15</text>
  <text x="407.0" y="370" font-family="Inter, Arial, sans-serif" font-size="12" fill="#59636e" text-anchor="middle">Time</text>
</svg>
