<svg xmlns="http://www.w3.org/2000/svg" viewBox="0 0 760 380" role="img" aria-labelledby="title desc">
  <title>Assisted Chin-up weight and reps over time</title>
  <desc>Dot plot from Apr 2 to Sep 10. Vertical position is weight and dot size represents reps or time.</desc>
  <rect width="100%" height="100%" fill="#ffffff"/>
  <text x="82" y="24" font-family="Inter, Arial, sans-serif" font-size="18" font-weight="700" fill="#1f2328">Assisted Chin-up</text>
  <text x="82" y="44" font-family="Inter, Arial, sans-serif" font-size="12" fill="#59636e">Weight by date · dot size = reps/time</text>
  <line x1="82" y1="314" x2="732" y2="314" stroke="#d7dde4"/>
  <line x1="82" y1="58" x2="82" y2="314" stroke="#d7dde4"/>
  <line x1="82" y1="186.0" x2="732" y2="186.0" stroke="#eef1f5"/>
  <text x="70" y="318.0" text-anchor="end">5.52</text><text x="70" y="190.0" text-anchor="end">8</text><text x="70" y="62.0" text-anchor="end">10.48</text>
  <g fill="#0b57d0" fill-opacity="0.62" stroke="#0847a8" stroke-width="1"><circle cx="82.0" cy="82.8" r="11.9"><title>Apr 2 · Set 1: 10 weight, 6.0 reps/time</title></circle><circle cx="82.0" cy="82.8" r="11.9"><title>Apr 2 · Set 2: 10 weight, 6.0 reps/time</title></circle><circle cx="89.0" cy="82.8" r="11.3"><title>Apr 2 · Set 3: 10 weight, 5.0 reps/time</title></circle><circle cx="103.3" cy="82.8" r="11.3"><title>Apr 9 · Set 1: 10 weight, 5,2 reps/time</title></circle><circle cx="110.3" cy="82.8" r="10.5"><title>Apr 9 · Set 2: 10 weight, 4.0 reps/time</title></circle><circle cx="117.3" cy="82.8" r="11.3"><title>Apr 9 · Set 3: 10 weight, 5.0 reps/time</title></circle><circle cx="131.5" cy="82.8" r="11.3"><title>Apr 16 · Set 1: 10 weight, 5,3 reps/time</title></circle><circle cx="138.5" cy="82.8" r="10.5"><title>Apr 16 · Set 2: 10 weight, 4.0 reps/time</title></circle><circle cx="145.5" cy="82.8" r="12.5"><title>Apr 16 · Set 3: 10 weight, 7.0 reps/time</title></circle><circle cx="159.8" cy="82.8" r="11.3"><title>Apr 23 · Set 1: 10 weight, 5,1,2 reps/time</title></circle><circle cx="166.8" cy="82.8" r="9.7"><title>Apr 23 · Set 2: 10 weight, 3.0 reps/time</title></circle><circle cx="173.8" cy="82.8" r="9.7"><title>Apr 23 · Set 3: 10 weight, 3,1,2 reps/time</title></circle><circle cx="188.0" cy="82.8" r="11.9"><title>Apr 30 · Set 1: 10 weight, 6,1,1 reps/time</title></circle><circle cx="195.0" cy="82.8" r="9.7"><title>Apr 30 · Set 2: 10 weight, 3,1 reps/time</title></circle><circle cx="202.0" cy="82.8" r="9.7"><title>Apr 30 · Set 3: 10 weight, 3,1 reps/time</title></circle><circle cx="216.3" cy="134.4" r="11.3"><title>May 7 · Set 1: 9 weight, 5,1 reps/time</title></circle><circle cx="223.3" cy="134.4" r="9.7"><title>May 7 · Set 2: 9 weight, 3.0 reps/time</title></circle><circle cx="230.3" cy="134.4" r="9.7"><title>May 7 · Set 3: 9 weight, 3.0 reps/time</title></circle><circle cx="272.8" cy="134.4" r="11.9"><title>May 21 · Set 1: 9 weight, 6.0 reps/time</title></circle><circle cx="279.8" cy="134.4" r="9.7"><title>May 21 · Set 2: 9 weight, 3.0 reps/time</title></circle><circle cx="286.8" cy="134.4" r="10.5"><title>May 21 · Set 3: 9 weight, 4.0 reps/time</title></circle><circle cx="301.1" cy="134.4" r="11.3"><title>May 28 · Set 1: 9 weight, 5,1 reps/time</title></circle><circle cx="308.1" cy="134.4" r="10.5"><title>May 28 · Set 2: 9 weight, 4.0 reps/time</title></circle><circle cx="315.1" cy="134.4" r="9.7"><title>May 28 · Set 3: 9 weight, 3.0 reps/time</title></circle><circle cx="329.3" cy="134.4" r="11.9"><title>Jun 4 · Set 1: 9 weight, 6,1 reps/time</title></circle><circle cx="336.3" cy="134.4" r="10.5"><title>Jun 4 · Set 2: 9 weight, 4,1 reps/time</title></circle><circle cx="343.3" cy="134.4" r="9.7"><title>Jun 4 · Set 3: 9 weight, 3,2 reps/time</title></circle><circle cx="357.6" cy="134.4" r="12.5"><title>Jun 11 · Set 1: 9 weight, 7,3 reps/time</title></circle><circle cx="364.6" cy="134.4" r="11.3"><title>Jun 11 · Set 2: 9 weight, 5,2 reps/time</title></circle><circle cx="371.6" cy="134.4" r="11.3"><title>Jun 11 · Set 3: 9 weight, 5.0 reps/time</title></circle><circle cx="414.1" cy="186.0" r="11.3"><title>Jun 25 · Set 1: 8 weight, 5.0 reps/time</title></circle><circle cx="421.1" cy="186.0" r="11.3"><title>Jun 25 · Set 2: 8 weight, 5.0 reps/time</title></circle><circle cx="428.1" cy="186.0" r="9.7"><title>Jun 25 · Set 3: 8 weight, 3.0 reps/time</title></circle><circle cx="470.7" cy="186.0" r="11.3"><title>Jul 9 · Set 1: 8 weight, 5.0 reps/time</title></circle><circle cx="477.7" cy="186.0" r="11.3"><title>Jul 9 · Set 2: 8 weight, 5.0 reps/time</title></circle><circle cx="484.7" cy="186.0" r="10.5"><title>Jul 9 · Set 3: 8 weight, 4,1 reps/time</title></circle><circle cx="498.9" cy="186.0" r="11.3"><title>Jul 16 · Set 1: 8 weight, 5,1 reps/time</title></circle><circle cx="505.9" cy="186.0" r="10.5"><title>Jul 16 · Set 2: 8 weight, 4,1 reps/time</title></circle><circle cx="512.9" cy="186.0" r="8.8"><title>Jul 16 · Set 3: 8 weight, 2,1 reps/time</title></circle><circle cx="527.2" cy="186.0" r="11.9"><title>Jul 23 · Set 1: 8 weight, 6,1 reps/time</title></circle><circle cx="534.2" cy="186.0" r="11.3"><title>Jul 23 · Set 2: 8 weight, 5,1 reps/time</title></circle><circle cx="541.2" cy="186.0" r="10.5"><title>Jul 23 · Set 3: 8 weight, 4,1 reps/time</title></circle><circle cx="583.7" cy="237.6" r="11.3"><title>Aug 6 · Set 1: 7 weight, 5.0 reps/time</title></circle><circle cx="590.7" cy="237.6" r="9.7"><title>Aug 6 · Set 2: 7 weight, 3.0 reps/time</title></circle><circle cx="597.7" cy="237.6" r="10.5"><title>Aug 6 · Set 3: 7 weight, 4.0 reps/time</title></circle><circle cx="608.5" cy="237.6" r="10.5"><title>Aug 13 · Set 1: 7 weight, 4,1 reps/time</title></circle><circle cx="615.5" cy="237.6" r="10.5"><title>Aug 13 · Set 2: 7 weight, 4.0 reps/time</title></circle><circle cx="622.5" cy="237.6" r="8.8"><title>Aug 13 · Set 3: 7 weight, 2,1 reps/time</title></circle><circle cx="629.5" cy="82.8" r="11.9"><title>Aug 13 · Set 4: 10 weight, 6.0 reps/time</title></circle><circle cx="665.0" cy="237.6" r="11.3"><title>Aug 27 · Set 1: 7 weight, 5.0 reps/time</title></circle><circle cx="672.0" cy="237.6" r="10.5"><title>Aug 27 · Set 2: 7 weight, 4,1 reps/time</title></circle><circle cx="679.0" cy="237.6" r="9.7"><title>Aug 27 · Set 3: 7 weight, 3.0 reps/time</title></circle><circle cx="686.0" cy="82.8" r="11.3"><title>Aug 27 · Set 4: 10 weight, 5.0 reps/time</title></circle><circle cx="693.2" cy="289.2" r="10.5"><title>Sep 3 · Set 1: 6 weight, 4.0 reps/time</title></circle><circle cx="700.2" cy="289.2" r="9.7"><title>Sep 3 · Set 2: 6 weight, 3.0 reps/time</title></circle><circle cx="707.2" cy="289.2" r="9.7"><title>Sep 3 · Set 3: 6 weight, 3.0 reps/time</title></circle><circle cx="714.2" cy="82.8" r="11.9"><title>Sep 3 · Set 4: 10 weight, 6.0 reps/time</title></circle><circle cx="721.5" cy="289.2" r="10.5"><title>Sep 10 · Set 1: 6 weight, 4.0 reps/time</title></circle><circle cx="728.5" cy="289.2" r="10.5"><title>Sep 10 · Set 2: 6 weight, 4.0 reps/time</title></circle><circle cx="732.0" cy="289.2" r="8.8"><title>Sep 10 · Set 3: 6 weight, 2.0 reps/time</title></circle><circle cx="732.0" cy="134.4" r="11.3"><title>Sep 10 · Set 4: 9 weight, 5.0 reps/time</title></circle></g>
  <text x="30" y="186.0" font-family="Inter, Arial, sans-serif" font-size="12" fill="#59636e" text-anchor="middle" transform="rotate(-90 30 186.0)">Weight</text>
  <text x="82" y="350" font-family="Inter, Arial, sans-serif" font-size="12" fill="#59636e" text-anchor="start">Apr 2</text>
  <text x="732" y="350" font-family="Inter, Arial, sans-serif" font-size="12" fill="#59636e" text-anchor="end">Sep 10</text>
  <text x="407.0" y="370" font-family="Inter, Arial, sans-serif" font-size="12" fill="#59636e" text-anchor="middle">Time</text>
</svg>
