<svg xmlns="http://www.w3.org/2000/svg" viewBox="0 0 760 380" role="img" aria-labelledby="title desc">
  <title>Triceps Pressdown weight and reps over time</title>
  <desc>Dot plot from Apr 2 to Sep 10. Vertical position is weight and dot size represents reps or time.</desc>
  <rect width="100%" height="100%" fill="#ffffff"/>
  <text x="82" y="24" font-family="Inter, Arial, sans-serif" font-size="18" font-weight="700" fill="#1f2328">Triceps Pressdown</text>
  <text x="82" y="44" font-family="Inter, Arial, sans-serif" font-size="12" fill="#59636e">Weight by date · dot size = reps/time</text>
  <line x1="82" y1="314" x2="732" y2="314" stroke="#d7dde4"/>
  <line x1="82" y1="58" x2="82" y2="314" stroke="#d7dde4"/>
  <line x1="82" y1="186.0" x2="732" y2="186.0" stroke="#eef1f5"/>
  <text x="70" y="318.0" text-anchor="end">20.1</text><text x="70" y="190.0" text-anchor="end">32.5</text><text x="70" y="62.0" text-anchor="end">44.9</text>
  <g fill="#0b57d0" fill-opacity="0.62" stroke="#0847a8" stroke-width="1"><circle cx="82.0" cy="289.2" r="12.5"><title>Apr 2 · Set 1: 22.5 weight, 20.0 reps/time</title></circle><circle cx="82.0" cy="263.4" r="12.5"><title>Apr 2 · Set 2: 25 weight, 20.0 reps/time</title></circle><circle cx="89.0" cy="263.4" r="12.5"><title>Apr 2 · Set 3: 25 weight, 20.0 reps/time</title></circle><circle cx="103.3" cy="237.6" r="11.4"><title>Apr 9 · Set 1: 27.5 weight, 15.0 reps/time</title></circle><circle cx="110.3" cy="237.6" r="11.4"><title>Apr 9 · Set 2: 27.5 weight, 15.0 reps/time</title></circle><circle cx="117.3" cy="237.6" r="11.4"><title>Apr 9 · Set 3: 27.5 weight, 15.0 reps/time</title></circle><circle cx="131.5" cy="211.8" r="11.4"><title>Apr 16 · Set 1: 30 weight, 15.0 reps/time</title></circle><circle cx="138.5" cy="211.8" r="11.4"><title>Apr 16 · Set 2: 30 weight, 15.0 reps/time</title></circle><circle cx="145.5" cy="211.8" r="11.4"><title>Apr 16 · Set 3: 30 weight, 15.0 reps/time</title></circle><circle cx="159.8" cy="186.0" r="11.4"><title>Apr 23 · Set 1: 32.5 weight, 15.0 reps/time</title></circle><circle cx="166.8" cy="186.0" r="11.4"><title>Apr 23 · Set 2: 32.5 weight, 15.0 reps/time</title></circle><circle cx="173.8" cy="186.0" r="10.7"><title>Apr 23 · Set 3: 32.5 weight, 12.0 reps/time</title></circle><circle cx="180.0" cy="186.0" r="11.4"><title>Apr 28 · Set 1: 32.5 weight, 15.0 reps/time</title></circle><circle cx="187.0" cy="186.0" r="9.9"><title>Apr 28 · Set 2: 32.5 weight, 9.0 reps/time</title></circle><circle cx="194.0" cy="186.0" r="9.2"><title>Apr 28 · Set 3: 32.5 weight, 7.0 reps/time</title></circle><circle cx="188.0" cy="160.2" r="10.4"><title>Apr 30 · Set 1: 35 weight, 11.0 reps/time</title></circle><circle cx="195.0" cy="160.2" r="10.7"><title>Apr 30 · Set 2: 35 weight, 12.0 reps/time</title></circle><circle cx="202.0" cy="160.2" r="10.9"><title>Apr 30 · Set 3: 35 weight, 13.0 reps/time</title></circle><circle cx="208.2" cy="186.0" r="4.5"><title>May 5 · Set 1: 32.5 weight, - reps/time</title></circle><circle cx="215.2" cy="186.0" r="4.5"><title>May 5 · Set 2: 32.5 weight, - reps/time</title></circle><circle cx="222.2" cy="186.0" r="4.5"><title>May 5 · Set 3: 32.5 weight, - reps/time</title></circle><circle cx="216.3" cy="160.2" r="11.4"><title>May 7 · Set 1: 35 weight, 15.0 reps/time</title></circle><circle cx="223.3" cy="160.2" r="9.9"><title>May 7 · Set 2: 35 weight, 9.0 reps/time</title></circle><circle cx="230.3" cy="160.2" r="11.4"><title>May 7 · Set 3: 35 weight, 15.0 reps/time</title></circle><circle cx="236.5" cy="186.0" r="4.5"><title>May 12 · Set 1: 32.5 weight, - reps/time</title></circle><circle cx="243.5" cy="186.0" r="4.5"><title>May 12 · Set 2: 32.5 weight, - reps/time</title></circle><circle cx="250.5" cy="186.0" r="4.5"><title>May 12 · Set 3: 32.5 weight, - reps/time</title></circle><circle cx="264.8" cy="186.0" r="4.5"><title>May 19 · Set 1: 32.5 weight, - reps/time</title></circle><circle cx="271.8" cy="186.0" r="4.5"><title>May 19 · Set 2: 32.5 weight, - reps/time</title></circle><circle cx="278.8" cy="186.0" r="4.5"><title>May 19 · Set 3: 32.5 weight, - reps/time</title></circle><circle cx="272.8" cy="134.4" r="11.4"><title>May 21 · Set 1: 37.5 weight, 15.0 reps/time</title></circle><circle cx="279.8" cy="134.4" r="11.4"><title>May 21 · Set 2: 37.5 weight, 15.0 reps/time</title></circle><circle cx="286.8" cy="134.4" r="10.2"><title>May 21 · Set 3: 37.5 weight, 10.0 reps/time</title></circle><circle cx="293.0" cy="186.0" r="4.5"><title>May 26 · Set 1: 32.5 weight, - reps/time</title></circle><circle cx="300.0" cy="186.0" r="4.5"><title>May 26 · Set 2: 32.5 weight, - reps/time</title></circle><circle cx="307.0" cy="186.0" r="4.5"><title>May 26 · Set 3: 32.5 weight, - reps/time</title></circle><circle cx="301.1" cy="134.4" r="11.4"><title>May 28 · Set 1: 37.5 weight, 15.0 reps/time</title></circle><circle cx="308.1" cy="134.4" r="11.4"><title>May 28 · Set 2: 37.5 weight, 15.0 reps/time</title></circle><circle cx="315.1" cy="134.4" r="11.4"><title>May 28 · Set 3: 37.5 weight, 15.0 reps/time</title></circle><circle cx="321.3" cy="186.0" r="4.5"><title>Jun 2 · Set 1: 32.5 weight, - reps/time</title></circle><circle cx="328.3" cy="186.0" r="4.5"><title>Jun 2 · Set 2: 32.5 weight, - reps/time</title></circle><circle cx="335.3" cy="186.0" r="4.5"><title>Jun 2 · Set 3: 32.5 weight, - reps/time</title></circle><circle cx="329.3" cy="108.6" r="10.7"><title>Jun 4 · Set 1: 40 weight, 12.0 reps/time</title></circle><circle cx="336.3" cy="108.6" r="11.4"><title>Jun 4 · Set 2: 40 weight, 15.0 reps/time</title></circle><circle cx="343.3" cy="108.6" r="10.9"><title>Jun 4 · Set 3: 40 weight, 13.0 reps/time</title></circle><circle cx="349.5" cy="186.0" r="4.5"><title>Jun 9 · Set 1: 32.5 weight, - reps/time</title></circle><circle cx="356.5" cy="186.0" r="4.5"><title>Jun 9 · Set 2: 32.5 weight, - reps/time</title></circle><circle cx="363.5" cy="186.0" r="4.5"><title>Jun 9 · Set 3: 32.5 weight, - reps/time</title></circle><circle cx="357.6" cy="108.6" r="10.9"><title>Jun 11 · Set 1: 40 weight, 13.0 reps/time</title></circle><circle cx="364.6" cy="108.6" r="11.4"><title>Jun 11 · Set 2: 40 weight, 15.0 reps/time</title></circle><circle cx="371.6" cy="108.6" r="4.5"><title>Jun 11 · Set 3: 40 weight, - reps/time</title></circle><circle cx="385.9" cy="186.0" r="4.5"><title>Jun 18 · Set 1: 32.5 weight, - reps/time</title></circle><circle cx="392.9" cy="186.0" r="4.5"><title>Jun 18 · Set 2: 32.5 weight, - reps/time</title></circle><circle cx="399.9" cy="186.0" r="4.5"><title>Jun 18 · Set 3: 32.5 weight, - reps/time</title></circle><circle cx="406.1" cy="186.0" r="4.5"><title>Jun 23 · Set 1: 32.5 weight, - reps/time</title></circle><circle cx="413.1" cy="186.0" r="4.5"><title>Jun 23 · Set 2: 32.5 weight, - reps/time</title></circle><circle cx="420.1" cy="186.0" r="4.5"><title>Jun 23 · Set 3: 32.5 weight, - reps/time</title></circle><circle cx="414.1" cy="108.6" r="10.2"><title>Jun 25 · Set 1: 40 weight, 10.0 reps/time</title></circle><circle cx="421.1" cy="108.6" r="11.2"><title>Jun 25 · Set 2: 40 weight, 14.0 reps/time</title></circle><circle cx="428.1" cy="108.6" r="11.4"><title>Jun 25 · Set 3: 40 weight, 15.0 reps/time</title></circle><circle cx="442.4" cy="186.0" r="4.5"><title>Jul 2 · Set 1: 32.5 weight, - reps/time</title></circle><circle cx="449.4" cy="186.0" r="4.5"><title>Jul 2 · Set 2: 32.5 weight, - reps/time</title></circle><circle cx="456.4" cy="186.0" r="4.5"><title>Jul 2 · Set 3: 32.5 weight, - reps/time</title></circle><circle cx="462.6" cy="186.0" r="4.5"><title>Jul 7 · Set 1: 32.5 weight, - reps/time</title></circle><circle cx="469.6" cy="186.0" r="4.5"><title>Jul 7 · Set 2: 32.5 weight, - reps/time</title></circle><circle cx="476.6" cy="186.0" r="4.5"><title>Jul 7 · Set 3: 32.5 weight, - reps/time</title></circle><circle cx="470.7" cy="108.6" r="10.7"><title>Jul 9 · Set 1: 40 weight, 12.0 reps/time</title></circle><circle cx="477.7" cy="108.6" r="10.7"><title>Jul 9 · Set 2: 40 weight, 12.0 reps/time</title></circle><circle cx="484.7" cy="108.6" r="10.2"><title>Jul 9 · Set 3: 40 weight, 10.0 reps/time</title></circle><circle cx="490.8" cy="186.0" r="4.5"><title>Jul 14 · Set 1: 32.5 weight, - reps/time</title></circle><circle cx="497.8" cy="186.0" r="4.5"><title>Jul 14 · Set 2: 32.5 weight, - reps/time</title></circle><circle cx="504.8" cy="186.0" r="4.5"><title>Jul 14 · Set 3: 32.5 weight, - reps/time</title></circle><circle cx="498.9" cy="108.6" r="10.7"><title>Jul 16 · Set 1: 40 weight, 12.0 reps/time</title></circle><circle cx="505.9" cy="108.6" r="10.9"><title>Jul 16 · Set 2: 40 weight, 13.0 reps/time</title></circle><circle cx="512.9" cy="108.6" r="10.4"><title>Jul 16 · Set 3: 40 weight, 11.0 reps/time</title></circle><circle cx="519.1" cy="186.0" r="4.5"><title>Jul 21 · Set 1: 32.5 weight, - reps/time</title></circle><circle cx="526.1" cy="186.0" r="4.5"><title>Jul 21 · Set 2: 32.5 weight, - reps/time</title></circle><circle cx="533.1" cy="186.0" r="4.5"><title>Jul 21 · Set 3: 32.5 weight, - reps/time</title></circle><circle cx="527.2" cy="108.6" r="11.4"><title>Jul 23 · Set 1: 40 weight, 15.0 reps/time</title></circle><circle cx="534.2" cy="108.6" r="11.2"><title>Jul 23 · Set 2: 40 weight, 14.0 reps/time</title></circle><circle cx="541.2" cy="108.6" r="9.9"><title>Jul 23 · Set 3: 40 weight, 9.0 reps/time</title></circle><circle cx="583.7" cy="134.4" r="11.2"><title>Aug 6 · Set 1: 37.5 weight, 14.0 reps/time</title></circle><circle cx="590.7" cy="82.8" r="9.9"><title>Aug 6 · Set 2: 42.5 weight, 9.0 reps/time</title></circle><circle cx="597.7" cy="82.8" r="10.2"><title>Aug 6 · Set 3: 42.5 weight, 10.0 reps/time</title></circle><circle cx="612.0" cy="82.8" r="10.7"><title>Aug 13 · Set 1: 42.5 weight, 12.0 reps/time</title></circle><circle cx="619.0" cy="82.8" r="10.7"><title>Aug 13 · Set 2: 42.5 weight, 12.0 reps/time</title></circle><circle cx="626.0" cy="82.8" r="9.6"><title>Aug 13 · Set 3: 42.5 weight, 8.0 reps/time</title></circle><circle cx="632.1" cy="82.8" r="4.5"><title>Aug 18 · Set 1: 42.5 weight, - reps/time</title></circle><circle cx="639.1" cy="82.8" r="4.5"><title>Aug 18 · Set 2: 42.5 weight, - reps/time</title></circle><circle cx="646.1" cy="82.8" r="4.5"><title>Aug 18 · Set 3: 42.5 weight, - reps/time</title></circle><circle cx="660.4" cy="82.8" r="4.5"><title>Aug 25 · Set 1: 42.5 weight, - reps/time</title></circle><circle cx="667.4" cy="82.8" r="4.5"><title>Aug 25 · Set 2: 42.5 weight, - reps/time</title></circle><circle cx="674.4" cy="82.8" r="4.5"><title>Aug 25 · Set 3: 42.5 weight, - reps/time</title></circle><circle cx="668.5" cy="82.8" r="10.7"><title>Aug 27 · Set 1: 42.5 weight, 12.0 reps/time</title></circle><circle cx="675.5" cy="82.8" r="9.9"><title>Aug 27 · Set 2: 42.5 weight, 9.0 reps/time</title></circle><circle cx="682.5" cy="82.8" r="9.6"><title>Aug 27 · Set 3: 42.5 weight, 8.0 reps/time</title></circle><circle cx="688.7" cy="82.8" r="4.5"><title>Sep 1 · Set 1: 42.5 weight, - reps/time</title></circle><circle cx="695.7" cy="82.8" r="4.5"><title>Sep 1 · Set 2: 42.5 weight, - reps/time</title></circle><circle cx="702.7" cy="82.8" r="4.5"><title>Sep 1 · Set 3: 42.5 weight, - reps/time</title></circle><circle cx="696.7" cy="82.8" r="10.9"><title>Sep 3 · Set 1: 42.5 weight, 13.0 reps/time</title></circle><circle cx="703.7" cy="82.8" r="10.7"><title>Sep 3 · Set 2: 42.5 weight, 12.0 reps/time</title></circle><circle cx="710.7" cy="82.8" r="9.6"><title>Sep 3 · Set 3: 42.5 weight, 8.0 reps/time</title></circle><circle cx="725.0" cy="82.8" r="9.9"><title>Sep 10 · Set 1: 42.5 weight, 9.0 reps/time</title></circle><circle cx="732.0" cy="82.8" r="10.7"><title>Sep 10 · Set 2: 42.5 weight, 12.0 reps/time</title></circle><circle cx="732.0" cy="82.8" r="9.2"><title>Sep 10 · Set 3: 42.5 weight, 7.0 reps/time</title></circle></g>
  <text x="30" y="186.0" font-family="Inter, Arial, sans-serif" font-size="12" fill="#59636e" text-anchor="middle" transform="rotate(-90 30 186.0)">Weight</text>
  <text x="82" y="350" font-family="Inter, Arial, sans-serif" font-size="12" fill="#59636e" text-anchor="start">Apr 2</text>
  <text x="732" y="350" font-family="Inter, Arial, sans-serif" font-size="12" fill="#59636e" text-anchor="end">Sep 10</text>
  <text x="407.0" y="370" font-family="Inter, Arial, sans-serif" font-size="12" fill="#59636e" text-anchor="middle">Time</text>
</svg>
