<svg xmlns="http://www.w3.org/2000/svg" viewBox="0 0 760 380" role="img" aria-labelledby="title desc">
  <title>Trap Deadlift weight and reps over time</title>
  <desc>Dot plot from Apr 2 to Sep 10. Vertical position is weight and dot size represents reps or time.</desc>
  <rect width="100%" height="100%" fill="#ffffff"/>
  <text x="82" y="24" font-family="Inter, Arial, sans-serif" font-size="18" font-weight="700" fill="#1f2328">Trap Deadlift</text>
  <text x="82" y="44" font-family="Inter, Arial, sans-serif" font-size="12" fill="#59636e">Weight by date · dot size = reps/time</text>
  <line x1="82" y1="314" x2="732" y2="314" stroke="#d7dde4"/>
  <line x1="82" y1="58" x2="82" y2="314" stroke="#d7dde4"/>
  <line x1="82" y1="186.0" x2="732" y2="186.0" stroke="#eef1f5"/>
  <text x="70" y="318.0" text-anchor="end">52.4</text><text x="70" y="190.0" text-anchor="end">117.5</text><text x="70" y="62.0" text-anchor="end">182.6</text>
  <g fill="#0b57d0" fill-opacity="0.62" stroke="#0847a8" stroke-width="1"><circle cx="82.0" cy="289.2" r="11.8"><title>Apr 2 · Set 1: 65 weight, 10.0 reps/time</title></circle><circle cx="82.0" cy="289.2" r="11.8"><title>Apr 2 · Set 2: 65 weight, 10.0 reps/time</title></circle><circle cx="89.0" cy="289.2" r="12.5"><title>Apr 2 · Set 3: 65 weight, 12.0 reps/time</title></circle><circle cx="103.3" cy="269.6" r="11.8"><title>Apr 9 · Set 1: 75 weight, 10.0 reps/time</title></circle><circle cx="110.3" cy="249.9" r="11.8"><title>Apr 9 · Set 2: 85 weight, 10.0 reps/time</title></circle><circle cx="117.3" cy="230.2" r="12.2"><title>Apr 9 · Set 3: 95 weight, 11.0 reps/time</title></circle><circle cx="131.5" cy="210.6" r="11.8"><title>Apr 16 · Set 1: 105 weight, 10.0 reps/time</title></circle><circle cx="138.5" cy="210.6" r="11.8"><title>Apr 16 · Set 2: 105 weight, 10.0 reps/time</title></circle><circle cx="145.5" cy="210.6" r="11.8"><title>Apr 16 · Set 3: 105 weight, 10.0 reps/time</title></circle><circle cx="159.8" cy="190.9" r="11.8"><title>Apr 23 · Set 1: 115 weight, 10.0 reps/time</title></circle><circle cx="166.8" cy="190.9" r="11.8"><title>Apr 23 · Set 2: 115 weight, 10.0 reps/time</title></circle><circle cx="173.8" cy="190.9" r="11.8"><title>Apr 23 · Set 3: 115 weight, 10.0 reps/time</title></circle><circle cx="188.0" cy="171.3" r="11.8"><title>Apr 30 · Set 1: 125 weight, 10.0 reps/time</title></circle><circle cx="195.0" cy="171.3" r="11.8"><title>Apr 30 · Set 2: 125 weight, 10.0 reps/time</title></circle><circle cx="202.0" cy="171.3" r="11.8"><title>Apr 30 · Set 3: 125 weight, 10.0 reps/time</title></circle><circle cx="216.3" cy="151.6" r="11.8"><title>May 7 · Set 1: 135 weight, 10.0 reps/time</title></circle><circle cx="223.3" cy="151.6" r="11.8"><title>May 7 · Set 2: 135 weight, 10.0 reps/time</title></circle><circle cx="230.3" cy="151.6" r="11.8"><title>May 7 · Set 3: 135 weight, 10.0 reps/time</title></circle><circle cx="272.8" cy="141.8" r="11.8"><title>May 21 · Set 1: 140 weight, 10.0 reps/time</title></circle><circle cx="279.8" cy="141.8" r="11.8"><title>May 21 · Set 2: 140 weight, 10.0 reps/time</title></circle><circle cx="286.8" cy="141.8" r="11.8"><title>May 21 · Set 3: 140 weight, 10.0 reps/time</title></circle><circle cx="301.1" cy="131.9" r="11.8"><title>May 28 · Set 1: 145 weight, 10.0 reps/time</title></circle><circle cx="308.1" cy="131.9" r="11.8"><title>May 28 · Set 2: 145 weight, 10.0 reps/time</title></circle><circle cx="315.1" cy="131.9" r="11.8"><title>May 28 · Set 3: 145 weight, 10.0 reps/time</title></circle><circle cx="329.3" cy="122.1" r="11.8"><title>Jun 4 · Set 1: 150 weight, 10.0 reps/time</title></circle><circle cx="336.3" cy="122.1" r="11.8"><title>Jun 4 · Set 2: 150 weight, 10.0 reps/time</title></circle><circle cx="343.3" cy="122.1" r="11.8"><title>Jun 4 · Set 3: 150 weight, 10.0 reps/time</title></circle><circle cx="357.6" cy="112.3" r="11.8"><title>Jun 11 · Set 1: 155 weight, 10.0 reps/time</title></circle><circle cx="364.6" cy="112.3" r="11.8"><title>Jun 11 · Set 2: 155 weight, 10.0 reps/time</title></circle><circle cx="371.6" cy="112.3" r="11.8"><title>Jun 11 · Set 3: 155 weight, 10.0 reps/time</title></circle><circle cx="414.1" cy="102.4" r="11.8"><title>Jun 25 · Set 1: 160 weight, 10.0 reps/time</title></circle><circle cx="421.1" cy="102.4" r="11.8"><title>Jun 25 · Set 2: 160 weight, 10.0 reps/time</title></circle><circle cx="428.1" cy="102.4" r="11.8"><title>Jun 25 · Set 3: 160 weight, 10.0 reps/time</title></circle><circle cx="470.7" cy="102.4" r="11.8"><title>Jul 9 · Set 1: 160 weight, 10.0 reps/time</title></circle><circle cx="477.7" cy="102.4" r="11.8"><title>Jul 9 · Set 2: 160 weight, 10.0 reps/time</title></circle><circle cx="484.7" cy="102.4" r="11.8"><title>Jul 9 · Set 3: 160 weight, 10.0 reps/time</title></circle><circle cx="498.9" cy="92.6" r="11.8"><title>Jul 16 · Set 1: 165 weight, 10.0 reps/time</title></circle><circle cx="505.9" cy="92.6" r="11.8"><title>Jul 16 · Set 2: 165 weight, 10.0 reps/time</title></circle><circle cx="512.9" cy="92.6" r="11.8"><title>Jul 16 · Set 3: 165 weight, 10.0 reps/time</title></circle><circle cx="527.2" cy="82.8" r="11.8"><title>Jul 23 · Set 1: 170 weight, 10.0 reps/time</title></circle><circle cx="534.2" cy="82.8" r="11.8"><title>Jul 23 · Set 2: 170 weight, 10.0 reps/time</title></circle><circle cx="541.2" cy="82.8" r="11.8"><title>Jul 23 · Set 3: 170 weight, 10.0 reps/time</title></circle><circle cx="555.4" cy="190.9" r="11.8"><title>Jul 30 · Set 1: 115 weight, 10.0 reps/time</title></circle><circle cx="562.4" cy="190.9" r="11.8"><title>Jul 30 · Set 2: 115 weight, 10.0 reps/time</title></circle><circle cx="569.4" cy="190.9" r="11.8"><title>Jul 30 · Set 3: 115 weight, 10.0 reps/time</title></circle><circle cx="583.7" cy="92.6" r="11.8"><title>Aug 6 · Set 1: 165 weight, 10.0 reps/time</title></circle><circle cx="590.7" cy="92.6" r="11.8"><title>Aug 6 · Set 2: 165 weight, 10.0 reps/time</title></circle><circle cx="597.7" cy="92.6" r="11.8"><title>Aug 6 · Set 3: 165 weight, 10.0 reps/time</title></circle><circle cx="612.0" cy="82.8" r="11.8"><title>Aug 13 · Set 1: 170 weight, 10.0 reps/time</title></circle><circle cx="619.0" cy="82.8" r="11.8"><title>Aug 13 · Set 2: 170 weight, 10.0 reps/time</title></circle><circle cx="626.0" cy="82.8" r="11.8"><title>Aug 13 · Set 3: 170 weight, 10.0 reps/time</title></circle><circle cx="640.2" cy="112.3" r="9.7"><title>Aug 20 · Set 1: 155 weight, 5.0 reps/time</title></circle><circle cx="647.2" cy="131.9" r="11.8"><title>Aug 20 · Set 2: 145 weight, 10.0 reps/time</title></circle><circle cx="654.2" cy="131.9" r="11.8"><title>Aug 20 · Set 3: 145 weight, 10.0 reps/time</title></circle><circle cx="668.5" cy="122.1" r="11.8"><title>Aug 27 · Set 1: 150 weight, 10.0 reps/time</title></circle><circle cx="675.5" cy="122.1" r="11.8"><title>Aug 27 · Set 2: 150 weight, 10.0 reps/time</title></circle><circle cx="682.5" cy="122.1" r="11.8"><title>Aug 27 · Set 3: 150 weight, 10.0 reps/time</title></circle><circle cx="696.7" cy="112.3" r="11.8"><title>Sep 3 · Set 1: 155 weight, 10.0 reps/time</title></circle><circle cx="703.7" cy="112.3" r="11.8"><title>Sep 3 · Set 2: 155 weight, 10.0 reps/time</title></circle><circle cx="710.7" cy="112.3" r="11.8"><title>Sep 3 · Set 3: 155 weight, 10.0 reps/time</title></circle><circle cx="725.0" cy="82.8" r="11.8"><title>Sep 10 · Set 1: 170 weight, 10.0 reps/time</title></circle><circle cx="732.0" cy="82.8" r="11.8"><title>Sep 10 · Set 2: 170 weight, 10.0 reps/time</title></circle><circle cx="732.0" cy="82.8" r="11.8"><title>Sep 10 · Set 3: 170 weight, 10.0 reps/time</title></circle></g>
  <text x="30" y="186.0" font-family="Inter, Arial, sans-serif" font-size="12" fill="#59636e" text-anchor="middle" transform="rotate(-90 30 186.0)">Weight</text>
  <text x="82" y="350" font-family="Inter, Arial, sans-serif" font-size="12" fill="#59636e" text-anchor="start">Apr 2</text>
  <text x="732" y="350" font-family="Inter, Arial, sans-serif" font-size="12" fill="#59636e" text-anchor="end">Sep 10</text>
  <text x="407.0" y="370" font-family="Inter, Arial, sans-serif" font-size="12" fill="#59636e" text-anchor="middle">Time</text>
</svg>
