<svg xmlns="http://www.w3.org/2000/svg" viewBox="0 0 760 380" role="img" aria-labelledby="title desc">
  <title>Incline DB Curl weight and reps over time</title>
  <desc>Dot plot from Apr 2 to Sep 24. Vertical position is weight and dot size represents reps or time.</desc>
  <rect width="100%" height="100%" fill="#ffffff"/>
  <text x="82" y="24" font-family="Inter, Arial, sans-serif" font-size="18" font-weight="700" fill="#1f2328">Incline DB Curl</text>
  <text x="82" y="44" font-family="Inter, Arial, sans-serif" font-size="12" fill="#59636e">Weight by date · dot size = reps/time</text>
  <line x1="82" y1="314" x2="732" y2="314" stroke="#d7dde4"/>
  <line x1="82" y1="58" x2="82" y2="314" stroke="#d7dde4"/>
  <line x1="82" y1="186.0" x2="732" y2="186.0" stroke="#eef1f5"/>
  <text x="70" y="318.0" text-anchor="end">8.8</text><text x="70" y="190.0" text-anchor="end">15</text><text x="70" y="62.0" text-anchor="end">21.2</text>
  <g fill="#0b57d0" fill-opacity="0.62" stroke="#0847a8" stroke-width="1"><circle cx="82.0" cy="289.2" r="11.8"><title>Apr 2 · Set 1: 10 weight, 15.0 reps/time</title></circle><circle cx="82.0" cy="289.2" r="11.8"><title>Apr 2 · Set 2: 10 weight, 15.0 reps/time</title></circle><circle cx="89.0" cy="289.2" r="11.8"><title>Apr 2 · Set 3: 10 weight, 15.0 reps/time</title></circle><circle cx="93.6" cy="237.6" r="11.8"><title>Apr 7 · Set 1: 12.5 weight, 15.0 reps/time</title></circle><circle cx="100.6" cy="237.6" r="11.8"><title>Apr 7 · Set 2: 12.5 weight, 15.0 reps/time</title></circle><circle cx="107.6" cy="237.6" r="11.8"><title>Apr 7 · Set 3: 12.5 weight, 15.0 reps/time</title></circle><circle cx="101.0" cy="237.6" r="11.8"><title>Apr 9 · Set 1: 12.5 weight, 15.0 reps/time</title></circle><circle cx="108.0" cy="237.6" r="11.8"><title>Apr 9 · Set 2: 12.5 weight, 15.0 reps/time</title></circle><circle cx="115.0" cy="237.6" r="11.8"><title>Apr 9 · Set 3: 12.5 weight, 15.0 reps/time</title></circle><circle cx="127.0" cy="237.6" r="11.8"><title>Apr 16 · Set 1: 12.5 weight, 15.0 reps/time</title></circle><circle cx="134.0" cy="237.6" r="11.8"><title>Apr 16 · Set 2: 12.5 weight, 15.0 reps/time</title></circle><circle cx="141.0" cy="237.6" r="11.8"><title>Apr 16 · Set 3: 12.5 weight, 15.0 reps/time</title></circle><circle cx="145.6" cy="186.0" r="11.8"><title>Apr 21 · Set 1: 15 weight, 15.0 reps/time</title></circle><circle cx="152.6" cy="186.0" r="10.2"><title>Apr 21 · Set 2: 15 weight, 9.0 reps/time</title></circle><circle cx="159.6" cy="186.0" r="9.8"><title>Apr 21 · Set 3: 15 weight, 8.0 reps/time</title></circle><circle cx="153.0" cy="186.0" r="11.8"><title>Apr 23 · Set 1: 15 weight, 15.0 reps/time</title></circle><circle cx="160.0" cy="186.0" r="11.8"><title>Apr 23 · Set 2: 15 weight, 15.0 reps/time</title></circle><circle cx="167.0" cy="186.0" r="11.6"><title>Apr 23 · Set 3: 15 weight, 14.0 reps/time</title></circle><circle cx="171.6" cy="186.0" r="11.8"><title>Apr 28 · Set 1: 15 weight, 15.0 reps/time</title></circle><circle cx="178.6" cy="186.0" r="9.8"><title>Apr 28 · Set 2: 15 weight, 8.0 reps/time</title></circle><circle cx="185.6" cy="186.0" r="9.8"><title>Apr 28 · Set 3: 15 weight, 8.0 reps/time</title></circle><circle cx="179.0" cy="186.0" r="11.8"><title>Apr 30 · Set 1: 15 weight, 15.0 reps/time</title></circle><circle cx="186.0" cy="186.0" r="11.3"><title>Apr 30 · Set 2: 15 weight, 13.0 reps/time</title></circle><circle cx="193.0" cy="186.0" r="11.0"><title>Apr 30 · Set 3: 15 weight, 12.0 reps/time</title></circle><circle cx="197.6" cy="186.0" r="4.5"><title>May 5 · Set 1: 15 weight, - reps/time</title></circle><circle cx="204.6" cy="186.0" r="4.5"><title>May 5 · Set 2: 15 weight, - reps/time</title></circle><circle cx="211.6" cy="186.0" r="4.5"><title>May 5 · Set 3: 15 weight, - reps/time</title></circle><circle cx="205.0" cy="186.0" r="11.8"><title>May 7 · Set 1: 15 weight, 15.0 reps/time</title></circle><circle cx="212.0" cy="186.0" r="11.8"><title>May 7 · Set 2: 15 weight, 15.0 reps/time</title></circle><circle cx="219.0" cy="186.0" r="11.8"><title>May 7 · Set 3: 15 weight, 15.0 reps/time</title></circle><circle cx="223.6" cy="186.0" r="12.0"><title>May 12 · Set 1: 15 weight, 16.0 reps/time</title></circle><circle cx="230.6" cy="186.0" r="11.8"><title>May 12 · Set 2: 15 weight, 15.0 reps/time</title></circle><circle cx="237.6" cy="186.0" r="12.5"><title>May 12 · Set 3: 15 weight, 18.0 reps/time</title></circle><circle cx="249.6" cy="134.4" r="11.8"><title>May 19 · Set 1: 17.5 weight, 15.0 reps/time</title></circle><circle cx="256.6" cy="134.4" r="11.8"><title>May 19 · Set 2: 17.5 weight, 15.0 reps/time</title></circle><circle cx="263.6" cy="134.4" r="9.8"><title>May 19 · Set 3: 17.5 weight, 8.0 reps/time</title></circle><circle cx="257.0" cy="134.4" r="11.8"><title>May 21 · Set 1: 17.5 weight, 15.0 reps/time</title></circle><circle cx="264.0" cy="134.4" r="11.8"><title>May 21 · Set 2: 17.5 weight, 15.0 reps/time</title></circle><circle cx="271.0" cy="134.4" r="12.3"><title>May 21 · Set 3: 17.5 weight, 17.0 reps/time</title></circle><circle cx="275.6" cy="134.4" r="4.5"><title>May 26 · Set 1: 17.5 weight, - reps/time</title></circle><circle cx="282.6" cy="134.4" r="4.5"><title>May 26 · Set 2: 17.5 weight, - reps/time</title></circle><circle cx="289.6" cy="134.4" r="4.5"><title>May 26 · Set 3: 17.5 weight, - reps/time</title></circle><circle cx="283.0" cy="134.4" r="11.8"><title>May 28 · Set 1: 17.5 weight, 15.0 reps/time</title></circle><circle cx="290.0" cy="134.4" r="11.8"><title>May 28 · Set 2: 17.5 weight, 15.0 reps/time</title></circle><circle cx="297.0" cy="134.4" r="12.0"><title>May 28 · Set 3: 17.5 weight, 16.0 reps/time</title></circle><circle cx="301.6" cy="134.4" r="11.8"><title>Jun 2 · Set 1: 17.5 weight, 15.0 reps/time</title></circle><circle cx="308.6" cy="134.4" r="11.8"><title>Jun 2 · Set 2: 17.5 weight, 15.0 reps/time</title></circle><circle cx="315.6" cy="134.4" r="4.5"><title>Jun 2 · Set 3: 17.5 weight, - reps/time</title></circle><circle cx="309.0" cy="134.4" r="11.8"><title>Jun 4 · Set 1: 17.5 weight, 15.0 reps/time</title></circle><circle cx="316.0" cy="134.4" r="11.8"><title>Jun 4 · Set 2: 17.5 weight, 15.0 reps/time</title></circle><circle cx="323.0" cy="134.4" r="12.3"><title>Jun 4 · Set 3: 17.5 weight, 17.0 reps/time</title></circle><circle cx="327.6" cy="134.4" r="4.5"><title>Jun 9 · Set 1: 17.5 weight, - reps/time</title></circle><circle cx="334.6" cy="134.4" r="4.5"><title>Jun 9 · Set 2: 17.5 weight, - reps/time</title></circle><circle cx="341.6" cy="134.4" r="4.5"><title>Jun 9 · Set 3: 17.5 weight, - reps/time</title></circle><circle cx="335.0" cy="82.8" r="11.3"><title>Jun 11 · Set 1: 20 weight, 13.0 reps/time</title></circle><circle cx="342.0" cy="82.8" r="11.8"><title>Jun 11 · Set 2: 20 weight, 15.0 reps/time</title></circle><circle cx="349.0" cy="82.8" r="4.5"><title>Jun 11 · Set 3: 20 weight, - reps/time</title></circle><circle cx="361.0" cy="134.4" r="4.5"><title>Jun 18 · Set 1: 17.5 weight, - reps/time</title></circle><circle cx="368.0" cy="134.4" r="4.5"><title>Jun 18 · Set 2: 17.5 weight, - reps/time</title></circle><circle cx="375.0" cy="134.4" r="4.5"><title>Jun 18 · Set 3: 17.5 weight, - reps/time</title></circle><circle cx="379.6" cy="134.4" r="11.8"><title>Jun 23 · Set 1: 17.5 weight, 15.0 reps/time</title></circle><circle cx="386.6" cy="134.4" r="11.8"><title>Jun 23 · Set 2: 17.5 weight, 15.0 reps/time</title></circle><circle cx="393.6" cy="134.4" r="11.8"><title>Jun 23 · Set 3: 17.5 weight, 15.0 reps/time</title></circle><circle cx="387.0" cy="82.8" r="11.8"><title>Jun 25 · Set 1: 20 weight, 15.0 reps/time</title></circle><circle cx="394.0" cy="82.8" r="11.8"><title>Jun 25 · Set 2: 20 weight, 15.0 reps/time</title></circle><circle cx="401.0" cy="82.8" r="11.8"><title>Jun 25 · Set 3: 20 weight, 15.0 reps/time</title></circle><circle cx="413.0" cy="134.4" r="12.0"><title>Jul 2 · Set 1: 17.5 weight, 16.0 reps/time</title></circle><circle cx="420.0" cy="82.8" r="10.2"><title>Jul 2 · Set 2: 20 weight, 9.0 reps/time</title></circle><circle cx="427.0" cy="82.8" r="10.5"><title>Jul 2 · Set 3: 20 weight, 10.0 reps/time</title></circle><circle cx="431.6" cy="82.8" r="10.5"><title>Jul 7 · Set 1: 20 weight, 10.0 reps/time</title></circle><circle cx="438.6" cy="82.8" r="10.8"><title>Jul 7 · Set 2: 20 weight, 11.0 reps/time</title></circle><circle cx="445.6" cy="82.8" r="9.8"><title>Jul 7 · Set 3: 20 weight, 8.0 reps/time</title></circle><circle cx="439.0" cy="82.8" r="10.8"><title>Jul 9 · Set 1: 20 weight, 11.0 reps/time</title></circle><circle cx="446.0" cy="82.8" r="10.8"><title>Jul 9 · Set 2: 20 weight, 11.0 reps/time</title></circle><circle cx="453.0" cy="82.8" r="10.8"><title>Jul 9 · Set 3: 20 weight, 11.0 reps/time</title></circle><circle cx="457.6" cy="82.8" r="11.0"><title>Jul 14 · Set 1: 20 weight, 12.0 reps/time</title></circle><circle cx="464.6" cy="82.8" r="11.3"><title>Jul 14 · Set 2: 20 weight, 13.0 reps/time</title></circle><circle cx="471.6" cy="82.8" r="9.8"><title>Jul 14 · Set 3: 20 weight, 8.0 reps/time</title></circle><circle cx="465.0" cy="82.8" r="11.0"><title>Jul 16 · Set 1: 20 weight, 12.0 reps/time</title></circle><circle cx="472.0" cy="82.8" r="11.8"><title>Jul 16 · Set 2: 20 weight, 15.0 reps/time</title></circle><circle cx="479.0" cy="82.8" r="11.8"><title>Jul 16 · Set 3: 20 weight, 15.0 reps/time</title></circle><circle cx="483.6" cy="82.8" r="11.3"><title>Jul 21 · Set 1: 20 weight, 13.0 reps/time</title></circle><circle cx="490.6" cy="82.8" r="10.2"><title>Jul 21 · Set 2: 20 weight, 9.0 reps/time</title></circle><circle cx="497.6" cy="82.8" r="11.0"><title>Jul 21 · Set 3: 20 weight, 12.0 reps/time</title></circle><circle cx="491.0" cy="82.8" r="11.8"><title>Jul 23 · Set 1: 20 weight, 15.0 reps/time</title></circle><circle cx="498.0" cy="82.8" r="10.8"><title>Jul 23 · Set 2: 20 weight, 11.0 reps/time</title></circle><circle cx="505.0" cy="82.8" r="10.2"><title>Jul 23 · Set 3: 20 weight, 9.0 reps/time</title></circle><circle cx="543.0" cy="186.0" r="11.8"><title>Aug 6 · Set 1: 15 weight, 15.0 reps/time</title></circle><circle cx="550.0" cy="186.0" r="11.8"><title>Aug 6 · Set 2: 15 weight, 15.0 reps/time</title></circle><circle cx="557.0" cy="186.0" r="4.5"><title>Aug 6 · Set 3: 15 weight, - reps/time</title></circle><circle cx="569.0" cy="82.8" r="10.2"><title>Aug 13 · Set 1: 20 weight, 9.0 reps/time</title></circle><circle cx="576.0" cy="82.8" r="9.5"><title>Aug 13 · Set 2: 20 weight, 7.0 reps/time</title></circle><circle cx="583.0" cy="82.8" r="9.5"><title>Aug 13 · Set 3: 20 weight, 7.0 reps/time</title></circle><circle cx="587.6" cy="134.4" r="4.5"><title>Aug 18 · Set 1: 17.5 weight, - reps/time</title></circle><circle cx="594.6" cy="134.4" r="4.5"><title>Aug 18 · Set 2: 17.5 weight, - reps/time</title></circle><circle cx="601.6" cy="134.4" r="4.5"><title>Aug 18 · Set 3: 17.5 weight, - reps/time</title></circle><circle cx="613.6" cy="82.8" r="11.8"><title>Aug 25 · Set 1: 20 weight, 15.0 reps/time</title></circle><circle cx="620.6" cy="82.8" r="9.5"><title>Aug 25 · Set 2: 20 weight, 7.0 reps/time</title></circle><circle cx="627.6" cy="82.8" r="9.8"><title>Aug 25 · Set 3: 20 weight, 8.0 reps/time</title></circle><circle cx="621.0" cy="82.8" r="11.8"><title>Aug 27 · Set 1: 20 weight, 15.0 reps/time</title></circle><circle cx="628.0" cy="82.8" r="10.8"><title>Aug 27 · Set 2: 20 weight, 11.0 reps/time</title></circle><circle cx="635.0" cy="82.8" r="10.5"><title>Aug 27 · Set 3: 20 weight, 10.0 reps/time</title></circle><circle cx="639.6" cy="82.8" r="4.5"><title>Sep 1 · Set 1: 20 weight, - reps/time</title></circle><circle cx="646.6" cy="82.8" r="4.5"><title>Sep 1 · Set 2: 20 weight, - reps/time</title></circle><circle cx="653.6" cy="82.8" r="4.5"><title>Sep 1 · Set 3: 20 weight, - reps/time</title></circle><circle cx="647.0" cy="82.8" r="11.8"><title>Sep 3 · Set 1: 20 weight, 15.0 reps/time</title></circle><circle cx="654.0" cy="82.8" r="11.0"><title>Sep 3 · Set 2: 20 weight, 12.0 reps/time</title></circle><circle cx="661.0" cy="82.8" r="10.8"><title>Sep 3 · Set 3: 20 weight, 11.0 reps/time</title></circle><circle cx="665.6" cy="82.8" r="11.8"><title>Sep 8 · Set 1: 20 weight, 15.0 reps/time</title></circle><circle cx="672.6" cy="82.8" r="10.8"><title>Sep 8 · Set 2: 20 weight, 11.0 reps/time</title></circle><circle cx="679.6" cy="82.8" r="7.8"><title>Sep 8 · Set 3: 20 weight, 3.0 reps/time</title></circle><circle cx="673.0" cy="82.8" r="9.1"><title>Sep 10 · Set 1: 20 weight, 6.0 reps/time</title></circle><circle cx="680.0" cy="82.8" r="8.7"><title>Sep 10 · Set 2: 20 weight, 5.0 reps/time</title></circle><circle cx="687.0" cy="82.8" r="9.5"><title>Sep 10 · Set 3: 20 weight, 7.0 reps/time</title></circle><circle cx="691.6" cy="82.8" r="9.8"><title>Sep 15 · Set 1: 20 weight, 8,6 reps/time</title></circle><circle cx="698.6" cy="82.8" r="9.1"><title>Sep 15 · Set 2: 20 weight, 6,5 reps/time</title></circle><circle cx="705.6" cy="82.8" r="9.8"><title>Sep 15 · Set 3: 20 weight, 8,3 reps/time</title></circle><circle cx="725.0" cy="82.8" r="9.8"><title>Sep 24 · Set 1: 20 weight, 8.0 reps/time</title></circle><circle cx="732.0" cy="82.8" r="9.5"><title>Sep 24 · Set 2: 20 weight, 7.0 reps/time</title></circle><circle cx="732.0" cy="82.8" r="10.2"><title>Sep 24 · Set 3: 20 weight, 9.0 reps/time</title></circle></g>
  <text x="30" y="186.0" font-family="Inter, Arial, sans-serif" font-size="12" fill="#59636e" text-anchor="middle" transform="rotate(-90 30 186.0)">Weight</text>
  <text x="82" y="350" font-family="Inter, Arial, sans-serif" font-size="12" fill="#59636e" text-anchor="start">Apr 2</text>
  <text x="732" y="350" font-family="Inter, Arial, sans-serif" font-size="12" fill="#59636e" text-anchor="end">Sep 24</text>
  <text x="407.0" y="370" font-family="Inter, Arial, sans-serif" font-size="12" fill="#59636e" text-anchor="middle">Time</text>
</svg>
