<svg xmlns="http://www.w3.org/2000/svg" viewBox="0 0 760 380" role="img" aria-labelledby="title desc">
  <title>Trap Deadlift weight and reps over time</title>
  <desc>Dot plot from Apr 2 to Oct 1. Vertical position is weight and dot size represents reps or time.</desc>
  <rect width="100%" height="100%" fill="#ffffff"/>
  <text x="82" y="24" font-family="Inter, Arial, sans-serif" font-size="18" font-weight="700" fill="#1f2328">Trap Deadlift</text>
  <text x="82" y="44" font-family="Inter, Arial, sans-serif" font-size="12" fill="#59636e">Weight by date · dot size = reps/time</text>
  <line x1="82" y1="314" x2="732" y2="314" stroke="#d7dde4"/>
  <line x1="82" y1="58" x2="82" y2="314" stroke="#d7dde4"/>
  <line x1="82" y1="186.0" x2="732" y2="186.0" stroke="#eef1f5"/>
  <text x="70" y="318.0" text-anchor="end">50.6</text><text x="70" y="190.0" text-anchor="end">125</text><text x="70" y="62.0" text-anchor="end">199.4</text>
  <g fill="#0b57d0" fill-opacity="0.62" stroke="#0847a8" stroke-width="1"><circle cx="82.0" cy="289.2" r="11.8"><title>Apr 2 · Set 1: 65 weight, 10.0 reps/time</title></circle><circle cx="82.0" cy="289.2" r="11.8"><title>Apr 2 · Set 2: 65 weight, 10.0 reps/time</title></circle><circle cx="89.0" cy="289.2" r="12.5"><title>Apr 2 · Set 3: 65 weight, 12.0 reps/time</title></circle><circle cx="100.0" cy="272.0" r="11.8"><title>Apr 9 · Set 1: 75 weight, 10.0 reps/time</title></circle><circle cx="107.0" cy="254.8" r="11.8"><title>Apr 9 · Set 2: 85 weight, 10.0 reps/time</title></circle><circle cx="114.0" cy="237.6" r="12.2"><title>Apr 9 · Set 3: 95 weight, 11.0 reps/time</title></circle><circle cx="125.0" cy="220.4" r="11.8"><title>Apr 16 · Set 1: 105 weight, 10.0 reps/time</title></circle><circle cx="132.0" cy="220.4" r="11.8"><title>Apr 16 · Set 2: 105 weight, 10.0 reps/time</title></circle><circle cx="139.0" cy="220.4" r="11.8"><title>Apr 16 · Set 3: 105 weight, 10.0 reps/time</title></circle><circle cx="150.0" cy="203.2" r="11.8"><title>Apr 23 · Set 1: 115 weight, 10.0 reps/time</title></circle><circle cx="157.0" cy="203.2" r="11.8"><title>Apr 23 · Set 2: 115 weight, 10.0 reps/time</title></circle><circle cx="164.0" cy="203.2" r="11.8"><title>Apr 23 · Set 3: 115 weight, 10.0 reps/time</title></circle><circle cx="175.0" cy="186.0" r="11.8"><title>Apr 30 · Set 1: 125 weight, 10.0 reps/time</title></circle><circle cx="182.0" cy="186.0" r="11.8"><title>Apr 30 · Set 2: 125 weight, 10.0 reps/time</title></circle><circle cx="189.0" cy="186.0" r="11.8"><title>Apr 30 · Set 3: 125 weight, 10.0 reps/time</title></circle><circle cx="200.0" cy="168.8" r="11.8"><title>May 7 · Set 1: 135 weight, 10.0 reps/time</title></circle><circle cx="207.0" cy="168.8" r="11.8"><title>May 7 · Set 2: 135 weight, 10.0 reps/time</title></circle><circle cx="214.0" cy="168.8" r="11.8"><title>May 7 · Set 3: 135 weight, 10.0 reps/time</title></circle><circle cx="250.0" cy="160.2" r="11.8"><title>May 21 · Set 1: 140 weight, 10.0 reps/time</title></circle><circle cx="257.0" cy="160.2" r="11.8"><title>May 21 · Set 2: 140 weight, 10.0 reps/time</title></circle><circle cx="264.0" cy="160.2" r="11.8"><title>May 21 · Set 3: 140 weight, 10.0 reps/time</title></circle><circle cx="275.0" cy="151.6" r="11.8"><title>May 28 · Set 1: 145 weight, 10.0 reps/time</title></circle><circle cx="282.0" cy="151.6" r="11.8"><title>May 28 · Set 2: 145 weight, 10.0 reps/time</title></circle><circle cx="289.0" cy="151.6" r="11.8"><title>May 28 · Set 3: 145 weight, 10.0 reps/time</title></circle><circle cx="300.0" cy="143.0" r="11.8"><title>Jun 4 · Set 1: 150 weight, 10.0 reps/time</title></circle><circle cx="307.0" cy="143.0" r="11.8"><title>Jun 4 · Set 2: 150 weight, 10.0 reps/time</title></circle><circle cx="314.0" cy="143.0" r="11.8"><title>Jun 4 · Set 3: 150 weight, 10.0 reps/time</title></circle><circle cx="325.0" cy="134.4" r="11.8"><title>Jun 11 · Set 1: 155 weight, 10.0 reps/time</title></circle><circle cx="332.0" cy="134.4" r="11.8"><title>Jun 11 · Set 2: 155 weight, 10.0 reps/time</title></circle><circle cx="339.0" cy="134.4" r="11.8"><title>Jun 11 · Set 3: 155 weight, 10.0 reps/time</title></circle><circle cx="375.0" cy="125.8" r="11.8"><title>Jun 25 · Set 1: 160 weight, 10.0 reps/time</title></circle><circle cx="382.0" cy="125.8" r="11.8"><title>Jun 25 · Set 2: 160 weight, 10.0 reps/time</title></circle><circle cx="389.0" cy="125.8" r="11.8"><title>Jun 25 · Set 3: 160 weight, 10.0 reps/time</title></circle><circle cx="425.0" cy="125.8" r="11.8"><title>Jul 9 · Set 1: 160 weight, 10.0 reps/time</title></circle><circle cx="432.0" cy="125.8" r="11.8"><title>Jul 9 · Set 2: 160 weight, 10.0 reps/time</title></circle><circle cx="439.0" cy="125.8" r="11.8"><title>Jul 9 · Set 3: 160 weight, 10.0 reps/time</title></circle><circle cx="450.0" cy="117.2" r="11.8"><title>Jul 16 · Set 1: 165 weight, 10.0 reps/time</title></circle><circle cx="457.0" cy="117.2" r="11.8"><title>Jul 16 · Set 2: 165 weight, 10.0 reps/time</title></circle><circle cx="464.0" cy="117.2" r="11.8"><title>Jul 16 · Set 3: 165 weight, 10.0 reps/time</title></circle><circle cx="475.0" cy="108.6" r="11.8"><title>Jul 23 · Set 1: 170 weight, 10.0 reps/time</title></circle><circle cx="482.0" cy="108.6" r="11.8"><title>Jul 23 · Set 2: 170 weight, 10.0 reps/time</title></circle><circle cx="489.0" cy="108.6" r="11.8"><title>Jul 23 · Set 3: 170 weight, 10.0 reps/time</title></circle><circle cx="500.0" cy="203.2" r="11.8"><title>Jul 30 · Set 1: 115 weight, 10.0 reps/time</title></circle><circle cx="507.0" cy="203.2" r="11.8"><title>Jul 30 · Set 2: 115 weight, 10.0 reps/time</title></circle><circle cx="514.0" cy="203.2" r="11.8"><title>Jul 30 · Set 3: 115 weight, 10.0 reps/time</title></circle><circle cx="525.0" cy="117.2" r="11.8"><title>Aug 6 · Set 1: 165 weight, 10.0 reps/time</title></circle><circle cx="532.0" cy="117.2" r="11.8"><title>Aug 6 · Set 2: 165 weight, 10.0 reps/time</title></circle><circle cx="539.0" cy="117.2" r="11.8"><title>Aug 6 · Set 3: 165 weight, 10.0 reps/time</title></circle><circle cx="550.0" cy="108.6" r="11.8"><title>Aug 13 · Set 1: 170 weight, 10.0 reps/time</title></circle><circle cx="557.0" cy="108.6" r="11.8"><title>Aug 13 · Set 2: 170 weight, 10.0 reps/time</title></circle><circle cx="564.0" cy="108.6" r="11.8"><title>Aug 13 · Set 3: 170 weight, 10.0 reps/time</title></circle><circle cx="575.0" cy="134.4" r="9.7"><title>Aug 20 · Set 1: 155 weight, 5.0 reps/time</title></circle><circle cx="582.0" cy="151.6" r="11.8"><title>Aug 20 · Set 2: 145 weight, 10.0 reps/time</title></circle><circle cx="589.0" cy="151.6" r="11.8"><title>Aug 20 · Set 3: 145 weight, 10.0 reps/time</title></circle><circle cx="600.0" cy="143.0" r="11.8"><title>Aug 27 · Set 1: 150 weight, 10.0 reps/time</title></circle><circle cx="607.0" cy="143.0" r="11.8"><title>Aug 27 · Set 2: 150 weight, 10.0 reps/time</title></circle><circle cx="614.0" cy="143.0" r="11.8"><title>Aug 27 · Set 3: 150 weight, 10.0 reps/time</title></circle><circle cx="625.0" cy="134.4" r="11.8"><title>Sep 3 · Set 1: 155 weight, 10.0 reps/time</title></circle><circle cx="632.0" cy="134.4" r="11.8"><title>Sep 3 · Set 2: 155 weight, 10.0 reps/time</title></circle><circle cx="639.0" cy="134.4" r="11.8"><title>Sep 3 · Set 3: 155 weight, 10.0 reps/time</title></circle><circle cx="650.0" cy="108.6" r="11.8"><title>Sep 10 · Set 1: 170 weight, 10.0 reps/time</title></circle><circle cx="657.0" cy="108.6" r="11.8"><title>Sep 10 · Set 2: 170 weight, 10.0 reps/time</title></circle><circle cx="664.0" cy="108.6" r="11.8"><title>Sep 10 · Set 3: 170 weight, 10.0 reps/time</title></circle><circle cx="700.0" cy="100.0" r="11.8"><title>Sep 24 · Set 1: 175 weight, 10.0 reps/time</title></circle><circle cx="707.0" cy="91.4" r="11.8"><title>Sep 24 · Set 2: 180 weight, 10.0 reps/time</title></circle><circle cx="714.0" cy="91.4" r="11.8"><title>Sep 24 · Set 3: 180 weight, 10.0 reps/time</title></circle><circle cx="725.0" cy="82.8" r="11.8"><title>Oct 1 · Set 1: 185 weight, 10.0 reps/time</title></circle><circle cx="732.0" cy="82.8" r="11.8"><title>Oct 1 · Set 2: 185 weight, 10.0 reps/time</title></circle><circle cx="732.0" cy="82.8" r="11.8"><title>Oct 1 · Set 3: 185 weight, 10.0 reps/time</title></circle></g>
  <text x="30" y="186.0" font-family="Inter, Arial, sans-serif" font-size="12" fill="#59636e" text-anchor="middle" transform="rotate(-90 30 186.0)">Weight</text>
  <text x="82" y="350" font-family="Inter, Arial, sans-serif" font-size="12" fill="#59636e" text-anchor="start">Apr 2</text>
  <text x="732" y="350" font-family="Inter, Arial, sans-serif" font-size="12" fill="#59636e" text-anchor="end">Oct 1</text>
  <text x="407.0" y="370" font-family="Inter, Arial, sans-serif" font-size="12" fill="#59636e" text-anchor="middle">Time</text>
</svg>
