<svg xmlns="http://www.w3.org/2000/svg" viewBox="0 0 760 380" role="img" aria-labelledby="title desc">
  <title>Incline DB Curl weight and reps over time</title>
  <desc>Dot plot from Apr 2 to Sep 3. Vertical position is weight and dot size represents reps or time.</desc>
  <rect width="100%" height="100%" fill="#ffffff"/>
  <text x="82" y="24" font-family="Inter, Arial, sans-serif" font-size="18" font-weight="700" fill="#1f2328">Incline DB Curl</text>
  <text x="82" y="44" font-family="Inter, Arial, sans-serif" font-size="12" fill="#59636e">Weight by date · dot size = reps/time</text>
  <line x1="82" y1="314" x2="732" y2="314" stroke="#d7dde4"/>
  <line x1="82" y1="58" x2="82" y2="314" stroke="#d7dde4"/>
  <line x1="82" y1="186.0" x2="732" y2="186.0" stroke="#eef1f5"/>
  <text x="70" y="318.0" text-anchor="end">8.8</text><text x="70" y="190.0" text-anchor="end">15</text><text x="70" y="62.0" text-anchor="end">21.2</text>
  <g fill="#0b57d0" fill-opacity="0.62" stroke="#0847a8" stroke-width="1"><circle cx="82.0" cy="289.2" r="11.8"><title>Apr 2 · Set 1: 10 weight, 15.0 reps/time</title></circle><circle cx="82.0" cy="289.2" r="11.8"><title>Apr 2 · Set 2: 10 weight, 15.0 reps/time</title></circle><circle cx="89.0" cy="289.2" r="11.8"><title>Apr 2 · Set 3: 10 weight, 15.0 reps/time</title></circle><circle cx="96.1" cy="237.6" r="11.8"><title>Apr 7 · Set 1: 12.5 weight, 15.0 reps/time</title></circle><circle cx="103.1" cy="237.6" r="11.8"><title>Apr 7 · Set 2: 12.5 weight, 15.0 reps/time</title></circle><circle cx="110.1" cy="237.6" r="11.8"><title>Apr 7 · Set 3: 12.5 weight, 15.0 reps/time</title></circle><circle cx="104.5" cy="237.6" r="11.8"><title>Apr 9 · Set 1: 12.5 weight, 15.0 reps/time</title></circle><circle cx="111.5" cy="237.6" r="11.8"><title>Apr 9 · Set 2: 12.5 weight, 15.0 reps/time</title></circle><circle cx="118.5" cy="237.6" r="11.8"><title>Apr 9 · Set 3: 12.5 weight, 15.0 reps/time</title></circle><circle cx="134.1" cy="237.6" r="11.8"><title>Apr 16 · Set 1: 12.5 weight, 15.0 reps/time</title></circle><circle cx="141.1" cy="237.6" r="11.8"><title>Apr 16 · Set 2: 12.5 weight, 15.0 reps/time</title></circle><circle cx="148.1" cy="237.6" r="11.8"><title>Apr 16 · Set 3: 12.5 weight, 15.0 reps/time</title></circle><circle cx="155.2" cy="186.0" r="11.8"><title>Apr 21 · Set 1: 15 weight, 15.0 reps/time</title></circle><circle cx="162.2" cy="186.0" r="10.2"><title>Apr 21 · Set 2: 15 weight, 9.0 reps/time</title></circle><circle cx="169.2" cy="186.0" r="9.8"><title>Apr 21 · Set 3: 15 weight, 8.0 reps/time</title></circle><circle cx="163.6" cy="186.0" r="11.8"><title>Apr 23 · Set 1: 15 weight, 15.0 reps/time</title></circle><circle cx="170.6" cy="186.0" r="11.8"><title>Apr 23 · Set 2: 15 weight, 15.0 reps/time</title></circle><circle cx="177.6" cy="186.0" r="11.6"><title>Apr 23 · Set 3: 15 weight, 14.0 reps/time</title></circle><circle cx="184.7" cy="186.0" r="11.8"><title>Apr 28 · Set 1: 15 weight, 15.0 reps/time</title></circle><circle cx="191.7" cy="186.0" r="9.8"><title>Apr 28 · Set 2: 15 weight, 8.0 reps/time</title></circle><circle cx="198.7" cy="186.0" r="9.8"><title>Apr 28 · Set 3: 15 weight, 8.0 reps/time</title></circle><circle cx="193.2" cy="186.0" r="11.8"><title>Apr 30 · Set 1: 15 weight, 15.0 reps/time</title></circle><circle cx="200.2" cy="186.0" r="11.3"><title>Apr 30 · Set 2: 15 weight, 13.0 reps/time</title></circle><circle cx="207.2" cy="186.0" r="11.0"><title>Apr 30 · Set 3: 15 weight, 12.0 reps/time</title></circle><circle cx="214.3" cy="186.0" r="4.5"><title>May 5 · Set 1: 15 weight, - reps/time</title></circle><circle cx="221.3" cy="186.0" r="4.5"><title>May 5 · Set 2: 15 weight, - reps/time</title></circle><circle cx="228.3" cy="186.0" r="4.5"><title>May 5 · Set 3: 15 weight, - reps/time</title></circle><circle cx="222.7" cy="186.0" r="11.8"><title>May 7 · Set 1: 15 weight, 15.0 reps/time</title></circle><circle cx="229.7" cy="186.0" r="11.8"><title>May 7 · Set 2: 15 weight, 15.0 reps/time</title></circle><circle cx="236.7" cy="186.0" r="11.8"><title>May 7 · Set 3: 15 weight, 15.0 reps/time</title></circle><circle cx="243.8" cy="186.0" r="12.0"><title>May 12 · Set 1: 15 weight, 16.0 reps/time</title></circle><circle cx="250.8" cy="186.0" r="11.8"><title>May 12 · Set 2: 15 weight, 15.0 reps/time</title></circle><circle cx="257.8" cy="186.0" r="12.5"><title>May 12 · Set 3: 15 weight, 18.0 reps/time</title></circle><circle cx="273.4" cy="134.4" r="11.8"><title>May 19 · Set 1: 17.5 weight, 15.0 reps/time</title></circle><circle cx="280.4" cy="134.4" r="11.8"><title>May 19 · Set 2: 17.5 weight, 15.0 reps/time</title></circle><circle cx="287.4" cy="134.4" r="9.8"><title>May 19 · Set 3: 17.5 weight, 8.0 reps/time</title></circle><circle cx="281.8" cy="134.4" r="11.8"><title>May 21 · Set 1: 17.5 weight, 15.0 reps/time</title></circle><circle cx="288.8" cy="134.4" r="11.8"><title>May 21 · Set 2: 17.5 weight, 15.0 reps/time</title></circle><circle cx="295.8" cy="134.4" r="12.3"><title>May 21 · Set 3: 17.5 weight, 17.0 reps/time</title></circle><circle cx="302.9" cy="134.4" r="4.5"><title>May 26 · Set 1: 17.5 weight, - reps/time</title></circle><circle cx="309.9" cy="134.4" r="4.5"><title>May 26 · Set 2: 17.5 weight, - reps/time</title></circle><circle cx="316.9" cy="134.4" r="4.5"><title>May 26 · Set 3: 17.5 weight, - reps/time</title></circle><circle cx="311.4" cy="134.4" r="11.8"><title>May 28 · Set 1: 17.5 weight, 15.0 reps/time</title></circle><circle cx="318.4" cy="134.4" r="11.8"><title>May 28 · Set 2: 17.5 weight, 15.0 reps/time</title></circle><circle cx="325.4" cy="134.4" r="12.0"><title>May 28 · Set 3: 17.5 weight, 16.0 reps/time</title></circle><circle cx="332.5" cy="134.4" r="11.8"><title>Jun 2 · Set 1: 17.5 weight, 15.0 reps/time</title></circle><circle cx="339.5" cy="134.4" r="11.8"><title>Jun 2 · Set 2: 17.5 weight, 15.0 reps/time</title></circle><circle cx="346.5" cy="134.4" r="4.5"><title>Jun 2 · Set 3: 17.5 weight, - reps/time</title></circle><circle cx="340.9" cy="134.4" r="11.8"><title>Jun 4 · Set 1: 17.5 weight, 15.0 reps/time</title></circle><circle cx="347.9" cy="134.4" r="11.8"><title>Jun 4 · Set 2: 17.5 weight, 15.0 reps/time</title></circle><circle cx="354.9" cy="134.4" r="12.3"><title>Jun 4 · Set 3: 17.5 weight, 17.0 reps/time</title></circle><circle cx="362.0" cy="134.4" r="4.5"><title>Jun 9 · Set 1: 17.5 weight, - reps/time</title></circle><circle cx="369.0" cy="134.4" r="4.5"><title>Jun 9 · Set 2: 17.5 weight, - reps/time</title></circle><circle cx="376.0" cy="134.4" r="4.5"><title>Jun 9 · Set 3: 17.5 weight, - reps/time</title></circle><circle cx="370.5" cy="82.8" r="11.3"><title>Jun 11 · Set 1: 20 weight, 13.0 reps/time</title></circle><circle cx="377.5" cy="82.8" r="11.8"><title>Jun 11 · Set 2: 20 weight, 15.0 reps/time</title></circle><circle cx="384.5" cy="82.8" r="4.5"><title>Jun 11 · Set 3: 20 weight, - reps/time</title></circle><circle cx="400.0" cy="134.4" r="4.5"><title>Jun 18 · Set 1: 17.5 weight, - reps/time</title></circle><circle cx="407.0" cy="134.4" r="4.5"><title>Jun 18 · Set 2: 17.5 weight, - reps/time</title></circle><circle cx="414.0" cy="134.4" r="4.5"><title>Jun 18 · Set 3: 17.5 weight, - reps/time</title></circle><circle cx="421.1" cy="134.4" r="11.8"><title>Jun 23 · Set 1: 17.5 weight, 15.0 reps/time</title></circle><circle cx="428.1" cy="134.4" r="11.8"><title>Jun 23 · Set 2: 17.5 weight, 15.0 reps/time</title></circle><circle cx="435.1" cy="134.4" r="11.8"><title>Jun 23 · Set 3: 17.5 weight, 15.0 reps/time</title></circle><circle cx="429.5" cy="82.8" r="11.8"><title>Jun 25 · Set 1: 20 weight, 15.0 reps/time</title></circle><circle cx="436.5" cy="82.8" r="11.8"><title>Jun 25 · Set 2: 20 weight, 15.0 reps/time</title></circle><circle cx="443.5" cy="82.8" r="11.8"><title>Jun 25 · Set 3: 20 weight, 15.0 reps/time</title></circle><circle cx="459.1" cy="134.4" r="12.0"><title>Jul 2 · Set 1: 17.5 weight, 16.0 reps/time</title></circle><circle cx="466.1" cy="82.8" r="10.2"><title>Jul 2 · Set 2: 20 weight, 9.0 reps/time</title></circle><circle cx="473.1" cy="82.8" r="10.5"><title>Jul 2 · Set 3: 20 weight, 10.0 reps/time</title></circle><circle cx="480.2" cy="82.8" r="10.5"><title>Jul 7 · Set 1: 20 weight, 10.0 reps/time</title></circle><circle cx="487.2" cy="82.8" r="10.8"><title>Jul 7 · Set 2: 20 weight, 11.0 reps/time</title></circle><circle cx="494.2" cy="82.8" r="9.8"><title>Jul 7 · Set 3: 20 weight, 8.0 reps/time</title></circle><circle cx="488.6" cy="82.8" r="10.8"><title>Jul 9 · Set 1: 20 weight, 11.0 reps/time</title></circle><circle cx="495.6" cy="82.8" r="10.8"><title>Jul 9 · Set 2: 20 weight, 11.0 reps/time</title></circle><circle cx="502.6" cy="82.8" r="10.8"><title>Jul 9 · Set 3: 20 weight, 11.0 reps/time</title></circle><circle cx="509.7" cy="82.8" r="11.0"><title>Jul 14 · Set 1: 20 weight, 12.0 reps/time</title></circle><circle cx="516.7" cy="82.8" r="11.3"><title>Jul 14 · Set 2: 20 weight, 13.0 reps/time</title></circle><circle cx="523.7" cy="82.8" r="9.8"><title>Jul 14 · Set 3: 20 weight, 8.0 reps/time</title></circle><circle cx="518.2" cy="82.8" r="11.0"><title>Jul 16 · Set 1: 20 weight, 12.0 reps/time</title></circle><circle cx="525.2" cy="82.8" r="11.8"><title>Jul 16 · Set 2: 20 weight, 15.0 reps/time</title></circle><circle cx="532.2" cy="82.8" r="11.8"><title>Jul 16 · Set 3: 20 weight, 15.0 reps/time</title></circle><circle cx="539.3" cy="82.8" r="11.3"><title>Jul 21 · Set 1: 20 weight, 13.0 reps/time</title></circle><circle cx="546.3" cy="82.8" r="10.2"><title>Jul 21 · Set 2: 20 weight, 9.0 reps/time</title></circle><circle cx="553.3" cy="82.8" r="11.0"><title>Jul 21 · Set 3: 20 weight, 12.0 reps/time</title></circle><circle cx="547.7" cy="82.8" r="11.8"><title>Jul 23 · Set 1: 20 weight, 15.0 reps/time</title></circle><circle cx="554.7" cy="82.8" r="10.8"><title>Jul 23 · Set 2: 20 weight, 11.0 reps/time</title></circle><circle cx="561.7" cy="82.8" r="10.2"><title>Jul 23 · Set 3: 20 weight, 9.0 reps/time</title></circle><circle cx="606.8" cy="186.0" r="11.8"><title>Aug 6 · Set 1: 15 weight, 15.0 reps/time</title></circle><circle cx="613.8" cy="186.0" r="11.8"><title>Aug 6 · Set 2: 15 weight, 15.0 reps/time</title></circle><circle cx="620.8" cy="186.0" r="4.5"><title>Aug 6 · Set 3: 15 weight, - reps/time</title></circle><circle cx="636.4" cy="82.8" r="10.2"><title>Aug 13 · Set 1: 20 weight, 9.0 reps/time</title></circle><circle cx="643.4" cy="82.8" r="9.5"><title>Aug 13 · Set 2: 20 weight, 7.0 reps/time</title></circle><circle cx="650.4" cy="82.8" r="9.5"><title>Aug 13 · Set 3: 20 weight, 7.0 reps/time</title></circle><circle cx="657.5" cy="134.4" r="4.5"><title>Aug 18 · Set 1: 17.5 weight, - reps/time</title></circle><circle cx="664.5" cy="134.4" r="4.5"><title>Aug 18 · Set 2: 17.5 weight, - reps/time</title></circle><circle cx="671.5" cy="134.4" r="4.5"><title>Aug 18 · Set 3: 17.5 weight, - reps/time</title></circle><circle cx="687.0" cy="82.8" r="11.8"><title>Aug 25 · Set 1: 20 weight, 15.0 reps/time</title></circle><circle cx="694.0" cy="82.8" r="9.5"><title>Aug 25 · Set 2: 20 weight, 7.0 reps/time</title></circle><circle cx="701.0" cy="82.8" r="9.8"><title>Aug 25 · Set 3: 20 weight, 8.0 reps/time</title></circle><circle cx="695.5" cy="82.8" r="11.8"><title>Aug 27 · Set 1: 20 weight, 15.0 reps/time</title></circle><circle cx="702.5" cy="82.8" r="10.8"><title>Aug 27 · Set 2: 20 weight, 11.0 reps/time</title></circle><circle cx="709.5" cy="82.8" r="10.5"><title>Aug 27 · Set 3: 20 weight, 10.0 reps/time</title></circle><circle cx="716.6" cy="82.8" r="4.5"><title>Sep 1 · Set 1: 20 weight, - reps/time</title></circle><circle cx="723.6" cy="82.8" r="4.5"><title>Sep 1 · Set 2: 20 weight, - reps/time</title></circle><circle cx="730.6" cy="82.8" r="4.5"><title>Sep 1 · Set 3: 20 weight, - reps/time</title></circle><circle cx="725.0" cy="82.8" r="11.8"><title>Sep 3 · Set 1: 20 weight, 15.0 reps/time</title></circle><circle cx="732.0" cy="82.8" r="11.0"><title>Sep 3 · Set 2: 20 weight, 12.0 reps/time</title></circle><circle cx="732.0" cy="82.8" r="10.8"><title>Sep 3 · Set 3: 20 weight, 11.0 reps/time</title></circle></g>
  <text x="30" y="186.0" font-family="Inter, Arial, sans-serif" font-size="12" fill="#59636e" text-anchor="middle" transform="rotate(-90 30 186.0)">Weight</text>
  <text x="82" y="350" font-family="Inter, Arial, sans-serif" font-size="12" fill="#59636e" text-anchor="start">Apr 2</text>
  <text x="732" y="350" font-family="Inter, Arial, sans-serif" font-size="12" fill="#59636e" text-anchor="end">Sep 3</text>
  <text x="407.0" y="370" font-family="Inter, Arial, sans-serif" font-size="12" fill="#59636e" text-anchor="middle">Time</text>
</svg>
